<svg width="60" height="60" viewBox="0 0 60 60" fill="none" xmlns="http://www.w3.org/2000/svg">
<g clip-path="url(#clip0_130_4611)">
<circle cx="30" cy="30" r="30" fill="#F1821A"/>
<path d="M39.9609 35.6172L39.0234 39.5625C38.9062 40.1484 38.4375 40.5391 37.8516 40.5391C28.0078 40.5 20 32.4922 20 22.6484C20 22.0625 20.3516 21.5938 20.9375 21.4766L24.8828 20.5391C25.4297 20.4219 26.0156 20.7344 26.25 21.2422L28.0859 25.5C28.2812 26.0078 28.1641 26.5938 27.7344 26.9062L25.625 28.625C26.9531 31.3203 29.1406 33.5078 31.875 34.8359L33.5938 32.7266C33.9062 32.3359 34.4922 32.1797 35 32.375L39.2578 34.2109C39.7656 34.4844 40.0781 35.0703 39.9609 35.6172Z" fill="white"/>
</g>
<defs>
<clipPath id="clip0_130_4611">
<rect width="60" height="60" fill="white"/>
</clipPath>
</defs>
</svg>
