<svg width="25" height="26" viewBox="0 0 25 26" fill="none" xmlns="http://www.w3.org/2000/svg">
<path d="M17.1875 6.375V0.125H8.59375C7.27539 0.125 6.25 1.19922 6.25 2.46875V6.61914C6.29883 6.61914 6.39648 6.57031 6.54297 6.57031L6.73828 6.52148C6.98242 6.42383 7.27539 6.375 7.51953 6.375C8.30078 6.375 9.08203 6.7168 9.61914 7.30273L9.76562 7.44922C9.86328 7.54688 9.96094 7.5957 10.0098 7.69336C10.1074 7.69336 10.2051 7.74219 10.3516 7.79102L10.5469 7.83984C11.5723 8.08398 12.3535 8.91406 12.6465 9.93945L12.6953 10.1348C12.7441 10.2812 12.7441 10.4277 12.793 10.4766C12.8418 10.5742 12.9395 10.623 13.0371 10.7695L13.1348 10.8672C13.916 11.6484 14.209 12.7715 13.916 13.7969V13.9434C13.8672 14.1387 13.8184 14.2363 13.8184 14.334C13.8184 14.3828 13.8672 14.5293 13.8672 14.6758L13.916 14.8711C14.209 15.8965 13.916 17.0195 13.1836 17.752L13.0371 17.8984C12.9395 17.9961 12.8418 18.0938 12.793 18.1426C12.7441 18.2402 12.7441 18.3379 12.6953 18.4844L12.6465 18.6797C12.4023 19.6074 11.7676 20.3398 10.8887 20.6816V25.125H22.6562C23.9258 25.125 25 24.0996 25 22.7812V7.9375H18.75C17.8711 7.9375 17.1875 7.25391 17.1875 6.375ZM18.75 0.125V6.375H25L18.75 0.125ZM11.1328 18.2891C11.1816 18.0449 11.2305 17.8496 11.2793 17.7031C11.4258 17.2637 11.5234 17.2148 12.0605 16.6777C12.4023 16.2871 12.5488 15.75 12.4023 15.2617C12.1582 14.2363 12.1582 14.3828 12.4023 13.4062C12.5488 12.8691 12.4023 12.332 12.0605 11.9902C11.5234 11.4043 11.4258 11.3555 11.2793 10.916C11.2305 10.7695 11.1816 10.623 11.1328 10.3301C11.084 10.2324 11.0352 10.0859 10.9863 9.98828C10.791 9.69531 10.498 9.45117 10.1074 9.30469C9.52148 9.1582 9.32617 9.10938 9.08203 8.91406C8.98438 8.86523 8.88672 8.76758 8.74023 8.62109C8.69141 8.57227 8.59375 8.47461 8.54492 8.37695C8.39844 8.2793 8.25195 8.18164 8.10547 8.08398C8.05664 8.08398 8.05664 8.08398 8.00781 8.03516C7.86133 7.98633 7.66602 7.9375 7.51953 7.9375C7.37305 7.9375 7.27539 7.98633 7.12891 7.98633C7.17773 7.98633 7.17773 7.98633 7.17773 7.98633C7.17773 7.98633 7.17773 7.98633 7.12891 7.98633C6.64062 8.13281 6.44531 8.23047 6.20117 8.23047C5.95703 8.23047 5.76172 8.13281 5.27344 7.98633C5.17578 7.98633 5.07812 7.9375 4.93164 7.9375C4.78516 7.9375 4.58984 7.98633 4.44336 8.03516C4.39453 8.08398 4.39453 8.08398 4.3457 8.08398C4.19922 8.18164 4.05273 8.2793 3.90625 8.37695C3.17383 9.10938 3.32031 9.06055 2.34375 9.30469C1.85547 9.45117 1.46484 9.8418 1.31836 10.3301C1.2207 10.7207 1.17188 10.9648 1.12305 11.1113C0.976562 11.4043 0.830078 11.502 0.390625 11.9902C0.292969 12.0879 0.244141 12.1855 0.146484 12.2832C0 12.625 -0.0976562 13.0156 0.0488281 13.4062C0.292969 14.3828 0.292969 14.2363 0.0488281 15.2617C-0.0976562 15.6523 0 16.043 0.146484 16.3848C0.244141 16.4824 0.292969 16.5801 0.390625 16.6777C0.927734 17.2148 1.02539 17.3125 1.17188 17.7031C1.2207 17.8496 1.26953 18.0449 1.31836 18.2891C1.46484 18.7773 1.85547 19.168 2.34375 19.3145C2.68555 19.4121 2.83203 19.4609 2.88086 19.4609C2.97852 19.5098 2.97852 19.5098 3.125 19.5586V25.125L6.25 23.5625L9.32617 25.125V19.5586C9.57031 19.4609 9.42383 19.5098 10.1074 19.3145C10.498 19.2168 10.791 18.9727 10.9863 18.6309C11.0352 18.5332 11.084 18.4355 11.1328 18.2891ZM6.25 17.3125C6.00586 17.3125 5.81055 17.3125 5.61523 17.2637C5.17578 17.166 4.83398 17.0195 4.49219 16.8242C4.15039 16.5801 3.85742 16.2871 3.61328 15.9453C3.32031 15.457 3.125 14.8711 3.125 14.1875C3.125 13.5527 3.32031 12.9668 3.61328 12.4785C3.85742 12.1367 4.15039 11.8438 4.49219 11.5996C4.83398 11.4043 5.17578 11.209 5.61523 11.1602C5.81055 11.1113 6.00586 11.0625 6.25 11.0625C7.95898 11.0625 9.32617 12.4785 9.32617 14.1875C9.32617 15.9453 7.95898 17.3125 6.25 17.3125Z" fill="#F1821A"/>
</svg>
