<svg width="60" height="60" viewBox="0 0 60 60" fill="none" xmlns="http://www.w3.org/2000/svg">
<g clip-path="url(#clip0_130_2353)">
<circle cx="30" cy="30" r="30" fill="#E17510"/>
<path d="M29.5625 40.0312C27.5312 37.4922 23 31.4375 23 28C23 23.8594 26.3203 20.5 30.5 20.5C34.6406 20.5 38 23.8594 38 28C38 31.4375 33.4297 37.4922 31.3984 40.0312C30.9297 40.6172 30.0312 40.6172 29.5625 40.0312ZM30.5 30.5C31.8672 30.5 33 29.4062 33 28C33 26.6328 31.8672 25.5 30.5 25.5C29.0938 25.5 28 26.6328 28 28C28 29.4062 29.0938 30.5 30.5 30.5Z" fill="white"/>
</g>
<defs>
<clipPath id="clip0_130_2353">
<rect width="60" height="60" fill="white"/>
</clipPath>
</defs>
</svg>
