<svg width="60" height="60" viewBox="0 0 60 60" fill="none" xmlns="http://www.w3.org/2000/svg">
<g clip-path="url(#clip0_130_4601)">
<ellipse cx="30" cy="29.9999" rx="30" ry="29.9999" fill="#614098"/>
<path d="M30 40.4998C24.4531 40.4998 20 36.0466 20 30.4998C20 24.9919 24.4531 20.4998 30 20.4998C35.5078 20.4998 40 24.9919 40 30.4998C40 36.0466 35.5078 40.4998 30 40.4998ZM29.0625 30.4998C29.0625 30.8123 29.2188 31.1248 29.4531 31.281L33.2031 33.781C33.6328 34.0935 34.2188 33.9763 34.4922 33.5466C34.8047 33.1169 34.6875 32.531 34.2578 32.2185L30.9375 30.031V25.1873C30.9375 24.6794 30.5078 24.2498 29.9609 24.2498C29.4531 24.2498 29.0234 24.6794 29.0234 25.1873L29.0625 30.4998Z" fill="white"/>
</g>
<defs>
<clipPath id="clip0_130_4601">
<rect width="60" height="59.9997" fill="white"/>
</clipPath>
</defs>
</svg>
