<svg width="43" height="43" viewBox="0 0 43 43" fill="none" xmlns="http://www.w3.org/2000/svg">
<path d="M41.918 31.9961L39.9492 40.2812C39.7031 41.5117 38.7188 42.332 37.4883 42.332C16.8164 42.25 0 25.4336 0 4.76172C0 3.53125 0.738281 2.54688 1.96875 2.30078L10.2539 0.332031C11.4023 0.0859375 12.6328 0.742188 13.125 1.80859L16.9805 10.75C17.3906 11.8164 17.1445 13.0469 16.2422 13.7031L11.8125 17.3125C14.6016 22.9727 19.1953 27.5664 24.9375 30.3555L28.5469 25.9258C29.2031 25.1055 30.4336 24.7773 31.5 25.1875L40.4414 29.043C41.5078 29.6172 42.1641 30.8477 41.918 31.9961Z" fill="#624696"/>
</svg>
