<svg width="60" height="60" viewBox="0 0 60 60" fill="none" xmlns="http://www.w3.org/2000/svg">
<g clip-path="url(#clip0_130_4617)">
<circle cx="30" cy="30" r="30" fill="#F1821A"/>
<path d="M30 34.25C29.3359 34.25 28.6719 34.0547 28.125 33.625L20 27.2969V36.125C20 37.1797 20.8203 38 21.875 38H38.125C39.1406 38 40 37.1797 40 36.125V27.2969L31.8359 33.625C31.2891 34.0547 30.625 34.25 30 34.25ZM20.625 26.2031L28.9062 32.6484C29.5312 33.1172 30.4297 33.1172 31.0547 32.6484L39.3359 26.2031C39.7266 25.8906 40 25.3828 40 24.875C40 23.8594 39.1406 23 38.125 23H21.875C20.8203 23 20 23.8594 20 24.875C20 25.3828 20.2344 25.8906 20.625 26.2031Z" fill="white"/>
</g>
<defs>
<clipPath id="clip0_130_4617">
<rect width="60" height="60" fill="white"/>
</clipPath>
</defs>
</svg>
