<svg width="193" height="70" viewBox="0 0 193 70" fill="none" xmlns="http://www.w3.org/2000/svg">
<g clip-path="url(#clip0_130_4527)">
<path d="M17.91 3.93003C17.91 4.13003 12.52 3.35003 8.21001 5.39003C9.02001 9.04003 10.88 13.69 15.06 13.57C20.69 13.41 19.23 2.38003 19.02 0.630034C18.95 0.0700339 14.2 -0.179966 11.86 0.120034C9.47001 0.430034 7.59001 1.11003 7.59001 1.11003C7.59001 1.11003 7.66001 2.61003 8.03001 4.56003C12.64 3.06003 17.9 3.63003 17.9 3.92003L17.91 3.93003Z" fill="#F1821A"/>
<path d="M11.03 30.24C10.59 30.35 10.18 30.5 9.91001 30.63C9.33001 30.91 10.68 30.02 10.45 29.36C10.39 29.26 10.27 29.29 10.17 29.3C6.96001 29.83 5.66001 29.87 5.67001 29.54C5.73001 27.5 6.53001 24.54 6.85001 23.47C8.97001 24.11 11.9 23.97 11.9 23.97C11.63 25.46 11.2 28.11 11.03 30.23V30.24Z" fill="#F1821A"/>
<path d="M6.91 23.4001C6.59 24.4701 5.73 27.5001 5.67 29.5501C5.67 29.8701 6.96 29.8301 10.17 29.3101C10.27 29.2901 10.39 29.2701 10.45 29.3701C10.68 30.0301 9.25 30.6101 9.91 30.6401C10.76 30.6801 11.94 30.4801 12.5 30.2701C12.67 28.1501 12.83 25.2501 13.1 23.7701C13.1 23.7701 9.03 24.0501 6.91 23.4001Z" fill="#F1821A"/>
<path d="M17.36 21.4601C19.03 19.8201 18.97 16.7801 18.96 14.4201C17.47 14.2901 16.66 18.7401 15.56 18.3101C13.78 17.6101 9.70001 12.3501 9.70001 12.3501C9.70001 12.3501 9.38001 12.5501 8.85001 12.9601C9.23001 15.2801 10.68 17.9101 12.28 19.6501C13.38 20.8401 15.6 23.1901 17.36 21.4701V21.4601Z" fill="#F1821A"/>
<path d="M8.84 12.9599C8.58 11.1699 8.43 10.0099 9.8 9.07992C10.08 8.88992 10.05 7.98992 9.9 8.15992L9.58 8.56992C7.39 9.95992 8.08 11.9899 8.33 13.7999C8.33 13.8399 8.36 13.8499 8.38 13.8399C8.34 13.6999 8.31 13.5599 8.28 13.4199C8.49 13.2399 8.68 13.0899 8.85 12.9599H8.84Z" fill="#F1821A"/>
<path d="M19.08 14.4301C19.27 14.4801 19.45 14.5401 19.63 14.6301C19.63 14.6101 19.63 14.6001 19.63 14.5801C19.63 12.8801 19.25 9.73011 18.3 9.21011C18.04 9.07011 17.16 8.99011 17.15 9.21011L17.77 9.58011C18.51 10.3101 18.95 12.9101 18.95 14.6301C18.95 14.6501 18.95 14.6601 18.96 14.6701C18.96 14.5801 18.96 14.4901 18.96 14.4101C19 14.4101 19.04 14.4101 19.08 14.4301Z" fill="#F1821A"/>
<path d="M16.87 22.4302C16.58 22.5602 16.3 22.6202 16.02 22.6402C15.8 26.4902 17.8 30.9002 22.32 31.0302C22.49 31.0302 22.65 31.0302 22.81 31.0302C22.85 31.0302 22.9 31.0302 22.94 31.0302C23.08 31.0302 23.21 31.0102 23.34 31.0002C23.36 31.0002 23.38 31.0002 23.4 31.0002C23.55 30.9802 23.7 30.9602 23.84 30.9302C23.88 30.9302 23.91 30.9202 23.95 30.9102C24.07 30.8902 24.18 30.8602 24.3 30.8202C24.33 30.8202 24.36 30.8102 24.38 30.8002C24.51 30.7602 24.65 30.7102 24.78 30.6602C24.81 30.6502 24.83 30.6402 24.86 30.6302C24.97 30.5902 25.07 30.5402 25.17 30.4902C25.2 30.4802 25.22 30.4702 25.25 30.4502C25.37 30.3902 25.49 30.3302 25.61 30.2602L25.65 30.2302C25.75 30.1702 25.85 30.1002 25.95 30.0302C25.97 30.0102 26 30.0002 26.02 29.9802C26.24 29.8202 26.45 29.6502 26.64 29.4602C26.66 29.4402 26.68 29.4202 26.7 29.4102C26.89 29.2202 27.08 29.0102 27.25 28.8002C27.26 28.7802 27.28 28.7702 27.29 28.7502C27.37 28.6502 27.45 28.5402 27.52 28.4402V28.4202C27.62 28.3002 27.69 28.1802 27.77 28.0602C27.77 28.0502 27.78 28.0402 27.79 28.0302C27.86 27.9102 27.93 27.8002 27.99 27.6802C27.99 27.6702 28 27.6602 28.01 27.6502C28.08 27.5202 28.15 27.3902 28.21 27.2502C28.61 26.4102 28.91 25.4902 29.11 24.5702C29.36 23.4402 29.47 22.4402 29.5 21.4302C29.17 21.0002 28.89 20.6602 29.03 19.9102C28.63 20.2802 28.46 20.5002 28.24 20.7502C27.64 21.4302 28.25 22.6902 28.26 23.9402C27.87 26.4302 24.57 28.9602 24.35 27.7502C23.57 20.2602 21.91 15.7902 19.63 14.6702C19.63 20.1902 18.2 21.8502 16.86 22.4602L16.87 22.4302Z" fill="#F1821A"/>
<path d="M31.73 22.6202C31.87 22.2102 31.95 22.0702 32.13 21.8102C31.46 22.2002 30.65 22.0702 30.04 21.7502C29.28 28.0602 27.16 31.4602 22.65 31.5402C17.74 31.6202 15.06 26.8202 15.53 22.6302C14.28 22.4802 13.16 21.4702 12.44 20.7602C12.32 20.6402 12.19 20.5102 12.08 20.3902C12.04 20.3402 11.99 20.3002 11.95 20.2502C11.88 20.1702 11.8 20.0902 11.73 20.0102C11.68 19.9502 11.63 19.8902 11.57 19.8302C11.51 19.7602 11.45 19.6902 11.39 19.6202C11.33 19.5502 11.28 19.4802 11.22 19.4202C11.17 19.3502 11.11 19.2902 11.06 19.2202C11 19.1502 10.95 19.0702 10.89 19.0002C10.84 18.9402 10.8 18.8702 10.75 18.8102C10.69 18.7302 10.63 18.6502 10.58 18.5602C10.54 18.5002 10.5 18.4402 10.46 18.3802C10.4 18.2902 10.34 18.2102 10.28 18.1202C10.24 18.0602 10.21 18.0102 10.17 17.9502C10.11 17.8602 10.05 17.7602 10 17.6702C9.97001 17.6202 9.94 17.5602 9.91 17.5102C9.85 17.4102 9.8 17.3102 9.74 17.2102C9.71 17.1602 9.69 17.1102 9.66 17.0602C9.6 16.9602 9.55 16.8502 9.49 16.7402C9.47 16.7002 9.45 16.6502 9.42 16.6102C9.36 16.5002 9.31001 16.3902 9.25 16.2702C9.23 16.2302 9.21 16.1902 9.2 16.1502C9.15 16.0302 9.09 15.9102 9.04 15.7902C9.03 15.7602 9.01 15.7202 9 15.6902C8.95 15.5702 8.90001 15.4402 8.85001 15.3102C8.84 15.2802 8.83 15.2502 8.82 15.2202C8.77 15.0902 8.72001 14.9502 8.67 14.8202C8.67 14.8002 8.66 14.7702 8.65 14.7502C8.6 14.6102 8.56001 14.4702 8.51 14.3202C8.51 14.3102 8.51 14.2902 8.5 14.2802C8.41 13.9902 8.33 13.7002 8.26 13.4102C5.81001 15.5002 0.950005 20.6002 0.0200049 29.2002C-0.239995 31.5902 1.86 33.7302 5.41 34.0702C5.37 34.0902 3.23001 46.6402 3.01 49.2202C2.96001 49.7702 7.36001 50.3702 12.02 50.5602C11.69 51.2602 7.56 50.4802 7.59 51.0102C8.04 58.3102 8.38 67.7202 8.38 67.7202L12.69 68.0402C12.69 68.0402 17.18 70.1902 17.52 68.7002C17.74 67.7602 13.01 65.9602 13.04 65.3002C13.25 61.3102 13.53 54.6802 13.81 50.6102C14.03 50.6102 14.25 50.6102 14.47 50.6202C14.49 56.0102 14.1 65.6202 14.1 65.6202L16.67 67.1302C16.67 67.1302 18.39 67.1802 18.62 67.3002C20.67 68.3202 22.57 68.3002 22.72 67.7302C22.99 66.7302 18.62 64.8802 18.67 64.6702C18.83 64.1202 19.66 56.7202 20.36 50.2902C21.81 50.0502 22.76 49.6702 22.81 49.1102C23.24 44.2102 23.01 38.1502 22.64 32.9602C22.94 33.4902 23.22 33.8802 23.8 34.0602C25.41 34.5702 27.57 33.7302 31.56 28.3002C31.31 27.5902 30.94 26.8702 30.5 26.2102C30.81 25.6402 31.14 25.0402 31.49 24.3402C31.77 23.7902 31.51 23.1402 31.73 22.6002V22.6202ZM8.18001 33.7102L8.75 30.0002C8.75 30.0002 5.57 30.7702 5.22 29.7202C4.58 27.8202 6.73 22.9602 6.79 22.9802C9.33 23.7302 13.69 23.3602 13.68 23.4102C13.37 25.5802 12.99 29.5302 13.07 31.8502C13 32.3102 11.04 33.8902 8.17 33.7202L8.18001 33.7102Z" fill="#F1821A"/>
<path d="M33.14 19.78C33.14 20.77 32.26 21.57 31.18 21.57C30.1 21.57 29.22 20.77 29.22 19.78C29.22 18.79 30.1 17.99 31.18 17.99C32.26 17.99 33.14 18.79 33.14 19.78Z" fill="#F1821A"/>
<path d="M110.49 27.6801H122.28C122.66 27.6801 122.91 27.6201 123.03 27.4901C123.15 27.3701 123.25 27.1401 123.33 26.8401L123.73 25.2701H123.19C122.97 25.2701 122.82 25.2201 122.73 25.1201C122.64 25.0201 122.59 24.8401 122.57 24.5901L122.09 14.7701C122.09 14.5401 121.98 14.3201 121.75 14.1301C121.52 13.9301 121.26 13.8301 120.95 13.8301H116.8L116.74 14.1501C116.89 14.1501 117.02 14.2101 117.1 14.3201C117.19 14.4301 117.24 14.5701 117.24 14.7301C117.24 14.8901 117.19 15.0701 117.09 15.2601L111.58 24.7001C111.38 25.0901 111.11 25.2801 110.76 25.2801H110.15L109.77 26.7301C109.74 26.8301 109.73 26.9301 109.73 27.0301C109.73 27.4701 109.99 27.6901 110.5 27.6901L110.49 27.6801ZM118.66 17.7801L118.92 25.2501H114.57L118.66 17.7801Z" fill="#F1821A"/>
<path d="M125.52 27.0602C126.39 27.6002 127.55 27.8702 129.01 27.8702H129.58C130.85 27.8702 131.86 27.7502 132.61 27.5002C133.36 27.2602 133.95 26.8402 134.38 26.2502C134.81 25.6602 135.17 24.8302 135.44 23.7702L135.86 22.1902C136.05 21.5002 136.14 20.8902 136.14 20.3402C136.14 19.2102 135.82 18.3102 135.19 17.6502C134.56 16.9902 133.38 16.6602 131.66 16.6602H130.85C129.61 16.6602 128.61 16.8102 127.84 17.1002C127.08 17.3902 126.46 17.8702 125.99 18.5502C125.52 19.2302 125.13 20.1802 124.83 21.4002L124.41 23.0902C124.28 23.6102 124.21 24.0802 124.21 24.5002C124.21 25.6802 124.65 26.5302 125.51 27.0702L125.52 27.0602ZM127.99 23.1202L128.36 21.6302C128.54 20.8902 128.74 20.3202 128.95 19.9302C129.17 19.5402 129.43 19.2902 129.73 19.1502C130.04 19.0202 130.45 18.9502 130.97 18.9502C131.53 18.9502 131.93 19.0602 132.17 19.2702C132.41 19.4802 132.53 19.8102 132.53 20.2602C132.53 20.7102 132.44 21.2302 132.27 21.8402L131.92 23.1202C131.69 24.0302 131.39 24.6602 131.02 25.0102C130.65 25.3602 130.09 25.5402 129.35 25.5402C128.83 25.5402 128.44 25.4302 128.19 25.2202C127.94 25.0102 127.82 24.6802 127.82 24.2302C127.82 23.9502 127.88 23.5702 127.99 23.1002V23.1202Z" fill="#F1821A"/>
<path d="M141.02 27.8601H141.5C142.76 27.8601 143.75 27.7401 144.49 27.4901C145.22 27.2401 145.8 26.8301 146.21 26.2401C146.63 25.6601 146.97 24.8301 147.25 23.7401L147.53 22.6801C147.77 21.8001 147.88 21.0801 147.88 20.5301C147.88 19.8001 147.79 19.1901 147.6 18.7201C147.41 18.2401 147.05 17.8701 146.5 17.5901C145.95 17.3101 145.17 17.1701 144.15 17.1701C143.44 17.1701 142.88 17.2901 142.46 17.5501C142.04 17.8001 141.68 18.1601 141.38 18.6201H141.1L141.36 17.8401C141.52 17.2801 141.8 16.8301 142.19 16.5101C142.59 16.1901 143.08 16.0301 143.66 16.0301H146.89C147.76 16.0301 148.24 15.8101 148.33 15.3701L148.73 13.8201H142.8C142.01 13.8201 141.32 13.9401 140.73 14.1901C140.15 14.4401 139.63 14.8201 139.19 15.3501C138.75 15.8701 138.36 16.5401 138.02 17.3601C137.68 18.1801 137.36 19.2001 137.06 20.4001L136.66 22.0101C136.42 22.9601 136.31 23.7501 136.31 24.4001C136.31 25.5301 136.67 26.3901 137.39 26.9801C138.11 27.5701 139.31 27.8601 140.98 27.8601H141.02ZM140.01 23.1201L140.25 22.1601C140.43 21.4101 140.63 20.8401 140.84 20.4601C141.05 20.0801 141.32 19.8201 141.62 19.6901C141.93 19.5601 142.34 19.4901 142.86 19.4901C143.41 19.4901 143.79 19.5901 144.03 19.7801C144.26 19.9801 144.38 20.2901 144.38 20.7101C144.38 21.0301 144.28 21.5801 144.07 22.3601L143.85 23.1201C143.68 23.7301 143.5 24.2001 143.31 24.5501C143.12 24.9001 142.89 25.1501 142.61 25.3101C142.33 25.4701 141.96 25.5501 141.51 25.5501C140.93 25.5501 140.5 25.4701 140.21 25.3001C139.93 25.1401 139.79 24.8501 139.79 24.4401C139.79 24.1901 139.86 23.7501 140.01 23.1101V23.1201Z" fill="#F1821A"/>
<path d="M149.84 17.5402C149.84 17.5402 149.83 17.6802 149.8 17.8202L146.86 29.4502C146.79 29.7402 146.75 29.9702 146.75 30.1202C146.75 30.4702 146.97 30.6402 147.41 30.6402H150.77L150.84 30.3202C150.54 30.3202 150.38 30.1902 150.36 29.9402C150.36 29.8902 150.37 29.7902 150.4 29.6602L150.9 27.6902H153.78C154.61 27.6902 155.31 27.6102 155.87 27.4602C156.43 27.3102 156.93 27.0502 157.35 26.6602C157.77 26.2802 158.14 25.7502 158.45 25.0802C158.76 24.4102 159.04 23.5402 159.29 22.4702C159.55 21.4902 159.68 20.6202 159.68 19.8402C159.68 18.8602 159.42 18.0802 158.9 17.5202C158.38 16.9502 157.51 16.6702 156.31 16.6702C155.59 16.6702 155.1 16.7202 154.83 16.8302C154.56 16.9402 154.32 17.1202 154.11 17.3802L153.49 18.1602H153.32L153.34 18.0402C153.41 17.7702 153.45 17.5802 153.45 17.4602C153.45 17.0602 153.23 16.8502 152.79 16.8502H149.43L149.36 17.1802C149.66 17.1802 149.82 17.3102 149.84 17.5602V17.5402ZM152.7 20.5302C152.8 20.1302 152.91 19.8302 153.04 19.6102C153.17 19.4002 153.36 19.2302 153.62 19.1202C153.88 19.0102 154.24 18.9602 154.7 18.9602C155.55 18.9602 155.97 19.4202 155.97 20.3302C155.97 20.7602 155.88 21.3302 155.69 22.0402C155.44 23.0202 155.2 23.7502 154.94 24.2202C154.69 24.6902 154.39 25.0002 154.03 25.1502C153.67 25.3002 153.16 25.3702 152.5 25.3702H151.46L152.69 20.5302H152.7Z" fill="#F1821A"/>
<path d="M161.2 27.0602C162.07 27.6002 163.23 27.8702 164.68 27.8702H165.25C166.52 27.8702 167.53 27.7502 168.28 27.5002C169.03 27.2602 169.62 26.8402 170.05 26.2502C170.48 25.6602 170.84 24.8302 171.11 23.7702L171.53 22.1902C171.72 21.5002 171.81 20.8902 171.81 20.3402C171.81 19.2102 171.49 18.3102 170.86 17.6502C170.23 16.9902 169.05 16.6602 167.33 16.6602H166.52C165.28 16.6602 164.28 16.8102 163.52 17.1002C162.76 17.3902 162.14 17.8702 161.67 18.5502C161.2 19.2302 160.81 20.1802 160.51 21.4002L160.09 23.0902C159.96 23.6102 159.89 24.0802 159.89 24.5002C159.89 25.6802 160.32 26.5302 161.19 27.0702L161.2 27.0602ZM163.67 23.1202L164.05 21.6302C164.23 20.8902 164.43 20.3202 164.64 19.9302C164.86 19.5402 165.12 19.2902 165.42 19.1502C165.73 19.0202 166.14 18.9502 166.66 18.9502C167.22 18.9502 167.62 19.0602 167.86 19.2702C168.1 19.4802 168.22 19.8102 168.22 20.2602C168.22 20.7102 168.13 21.2302 167.96 21.8402L167.61 23.1202C167.38 24.0302 167.08 24.6602 166.71 25.0102C166.34 25.3602 165.78 25.5402 165.04 25.5402C164.52 25.5402 164.13 25.4302 163.88 25.2202C163.63 25.0102 163.51 24.6802 163.51 24.2302C163.51 23.9502 163.57 23.5702 163.68 23.1002L163.67 23.1202Z" fill="#F1821A"/>
<path d="M171.9 26.4901C171.82 26.8001 171.79 27.0201 171.79 27.1601C171.79 27.5101 172.01 27.6801 172.45 27.6801H175.81L175.88 27.3601C175.58 27.3601 175.42 27.2301 175.4 26.9801C175.4 26.9301 175.42 26.8301 175.45 26.6901L177.01 20.4201C177.11 20.0201 177.29 19.7201 177.52 19.5301C177.75 19.3401 178.1 19.2401 178.56 19.2401H180.43C180.93 19.2401 181.32 19.1701 181.58 19.0401C181.85 18.9101 182.03 18.6701 182.12 18.3301L182.49 16.8201H173.71L173.65 17.1501C173.95 17.1501 174.11 17.2801 174.13 17.5301C174.13 17.5901 174.11 17.6901 174.08 17.8101L171.91 26.4801L171.9 26.4901Z" fill="#F1821A"/>
<path d="M192 17.6401C191.37 16.9801 190.19 16.6501 188.47 16.6501H187.66C186.42 16.6501 185.42 16.8001 184.66 17.0901C183.9 17.3801 183.28 17.8601 182.81 18.5401C182.34 19.2201 181.95 20.1701 181.65 21.3901L181.23 23.0801C181.1 23.6001 181.03 24.0701 181.03 24.4901C181.03 25.6701 181.46 26.5201 182.33 27.0601C183.2 27.6001 184.36 27.8701 185.81 27.8701H186.38C187.65 27.8701 188.66 27.7501 189.41 27.5001C190.16 27.2601 190.75 26.8401 191.18 26.2501C191.62 25.6601 191.97 24.8301 192.24 23.7701L192.66 22.1901C192.85 21.5001 192.94 20.8901 192.94 20.3401C192.94 19.2101 192.63 18.3101 191.99 17.6501L192 17.6401ZM189.09 21.8501L188.74 23.1301C188.51 24.0401 188.21 24.6701 187.84 25.0201C187.47 25.3701 186.92 25.5501 186.17 25.5501C185.65 25.5501 185.26 25.4401 185.01 25.2301C184.76 25.0201 184.63 24.6901 184.63 24.2401C184.63 23.9601 184.69 23.5801 184.8 23.1101L185.18 21.6201C185.36 20.8801 185.56 20.3101 185.77 19.9201C185.99 19.5301 186.25 19.2801 186.55 19.1401C186.86 19.0101 187.27 18.9401 187.79 18.9401C188.35 18.9401 188.75 19.0501 188.99 19.2601C189.23 19.4701 189.35 19.8001 189.35 20.2501C189.35 20.7001 189.26 21.2201 189.09 21.8301V21.8501Z" fill="#F1821A"/>
<path d="M39.48 27.9301H43.19L43.25 27.6101C42.91 27.5701 42.75 27.3901 42.75 27.0501C42.75 26.9101 42.77 26.7401 42.82 26.5501L43.87 22.4401L45.51 21.1301L47.05 26.8601C47.26 27.5801 47.65 27.9401 48.24 27.9401H50.17C50.52 27.9401 50.77 27.8901 50.92 27.8001C51.07 27.7101 51.17 27.5601 51.22 27.3501L51.66 25.5201H50.74C50.49 25.5201 50.34 25.4901 50.27 25.4201C50.21 25.3501 50.14 25.1901 50.08 24.9401L48.48 19.1601L52.94 15.5601C53.29 15.2801 53.47 14.9901 53.47 14.6801C53.47 14.2801 53.16 14.0801 52.55 14.0801H48.86L48.77 14.4001C48.93 14.4001 49.05 14.4401 49.13 14.5101C49.21 14.5801 49.25 14.6701 49.25 14.7801C49.25 14.9301 49.18 15.0601 49.03 15.1801L44.83 18.4901L45.69 15.1401C45.75 14.9101 45.78 14.7401 45.78 14.6301C45.78 14.2601 45.56 14.0701 45.12 14.0701H41.41L41.34 14.3901C41.68 14.4301 41.85 14.6101 41.85 14.9501C41.85 15.0901 41.83 15.2501 41.79 15.4501L38.91 26.8601C38.85 27.0901 38.82 27.2601 38.82 27.3601C38.82 27.7401 39.04 27.9201 39.48 27.9201V27.9301Z" fill="#F1821A"/>
<path d="M57.47 17.7301C57.47 17.8601 57.43 17.9901 57.34 18.1301L52.11 26.8501C51.98 27.0701 51.92 27.2501 51.92 27.3901C51.92 27.7501 52.12 27.9401 52.53 27.9401H55.74L55.81 27.6201C55.46 27.6201 55.28 27.4801 55.28 27.2001C55.28 27.0701 55.32 26.9401 55.41 26.8001L58.22 21.7201L58.4 27.0601C58.4 27.3301 58.5 27.5501 58.69 27.7101C58.88 27.8701 59.15 27.9501 59.5 27.9501H62.46L62.55 27.6301C62.19 27.6301 62 27.4301 61.98 27.0501L61.41 17.8301C61.39 17.3401 61.07 17.1001 60.47 17.1001H57.15L57.06 17.4201C57.34 17.4201 57.48 17.5301 57.48 17.7401L57.47 17.7301Z" fill="#F1821A"/>
<path d="M63.76 27.9301H66.88L66.94 27.6301C66.64 27.6301 66.49 27.5101 66.49 27.2801V27.0201L68.57 18.9601C68.64 18.7101 68.67 18.5301 68.67 18.4201C68.67 18.2501 68.63 18.1101 68.55 18.0101C68.47 17.9101 68.31 17.8601 68.06 17.8601H64.94L64.88 18.1601C65.18 18.1601 65.33 18.2801 65.33 18.5201V18.7801L63.25 26.8401C63.18 27.0901 63.15 27.2901 63.15 27.4601C63.15 27.6301 63.2 27.7401 63.28 27.8201C63.36 27.9001 63.53 27.9401 63.76 27.9401V27.9301Z" fill="#F1821A"/>
<path d="M65.79 17.1301C65.91 17.1801 66.07 17.2001 66.26 17.2001H69.21L69.58 15.7101L69.6 15.4901C69.6 15.3201 69.55 15.2001 69.44 15.1401C69.33 15.0801 69.17 15.0601 68.95 15.0601H66.02L65.67 16.4001C65.64 16.4901 65.62 16.5601 65.62 16.6101C65.62 16.6601 65.62 16.7001 65.62 16.7401C65.62 16.9501 65.68 17.0801 65.8 17.1301H65.79Z" fill="#F1821A"/>
<path d="M70.2 17.7901C70.2 17.7901 70.18 17.9101 70.15 18.0701L67.96 26.7401C67.89 27.0201 67.85 27.2501 67.85 27.4101C67.85 27.7601 68.07 27.9301 68.51 27.9301H71.87L71.93 27.6101C71.63 27.6101 71.47 27.4801 71.45 27.2301C71.45 27.1801 71.46 27.0801 71.49 26.9401L72.41 23.3901H75.51L74.65 26.7401C74.58 27.0301 74.54 27.2501 74.54 27.4101C74.54 27.7601 74.76 27.9301 75.19 27.9301H78.55L78.61 27.6101C78.31 27.6101 78.15 27.4801 78.13 27.2301C78.13 27.1801 78.14 27.0801 78.17 26.9401L80.37 18.2701C80.45 17.9901 80.48 17.7901 80.48 17.6901C80.48 17.2901 80.26 17.0901 79.82 17.0901H76.46L76.4 17.4101C76.7 17.4101 76.86 17.5401 76.88 17.7901C76.88 17.8401 76.86 17.9301 76.84 18.0701L76.07 21.0801H72.98L73.68 18.2701C73.75 18.0001 73.79 17.8101 73.79 17.6901C73.79 17.2901 73.57 17.0901 73.13 17.0901H69.78L69.71 17.4101C70.01 17.4101 70.17 17.5401 70.2 17.7901Z" fill="#F1821A"/>
<path d="M87.23 14.7801C87.23 14.8401 87.22 14.9301 87.19 15.0601L84.23 26.7501C84.15 27.0301 84.12 27.2601 84.12 27.4201C84.12 27.7701 84.34 27.9401 84.78 27.9401H88.14L88.21 27.6201C87.91 27.6201 87.75 27.4901 87.73 27.2401C87.73 27.1901 87.74 27.0901 87.77 26.9501L88.87 22.6401H90.21C91.04 22.6401 91.46 22.8501 91.46 23.2901C91.46 23.4301 91.44 23.5901 91.39 23.7701L90.63 26.7601C90.55 27.0401 90.52 27.2701 90.52 27.4301C90.52 27.7801 90.74 27.9501 91.18 27.9501H94.54L94.6 27.6301C94.3 27.6301 94.14 27.5001 94.12 27.2501C94.12 27.2001 94.13 27.1001 94.16 26.9601L95.17 23.0501C95.22 22.8301 95.24 22.6101 95.24 22.3601C95.24 21.8801 95.03 21.4801 94.6 21.1601C94.18 20.8401 93.56 20.6801 92.75 20.6801H92.13L95.65 17.7701C95.77 17.6901 95.82 17.5701 95.82 17.4301C95.82 17.3501 95.78 17.2701 95.71 17.2101C95.64 17.1401 95.53 17.1101 95.38 17.1101H92.11L92.05 17.4301C92.28 17.4501 92.4 17.5201 92.4 17.6501C92.4 17.7201 92.34 17.8101 92.23 17.9101L89.42 20.4401L90.74 15.2801C90.81 15.0001 90.85 14.8101 90.85 14.7001C90.85 14.3001 90.63 14.1001 90.19 14.1001H86.83L86.77 14.4201C87.07 14.4201 87.23 14.5501 87.25 14.8001L87.23 14.7801Z" fill="#F1821A"/>
<path d="M95.63 25.3202C95.63 26.1302 95.86 26.7702 96.33 27.2302C96.8 27.7002 97.54 27.9302 98.57 27.9302C99.45 27.9302 100.07 27.8702 100.4 27.7602C100.74 27.6502 101 27.4302 101.2 27.1302L101.79 26.1902H102.05L101.94 26.5702C101.86 26.8802 101.83 27.1002 101.83 27.2402C101.83 27.5902 102.05 27.7602 102.49 27.7602H105.85L105.91 27.4402C105.61 27.4402 105.45 27.3102 105.43 27.0602C105.43 27.0102 105.44 26.9102 105.47 26.7802L107.14 20.2002C107.27 19.7002 107.34 19.2502 107.34 18.8302C107.34 17.5602 106.54 16.9202 104.94 16.9202H99.21L98.88 18.1502C98.83 18.2902 98.81 18.4002 98.81 18.4902C98.81 18.9202 99.1 19.1302 99.67 19.1302H103.07C103.19 19.1302 103.3 19.1602 103.4 19.2302C103.5 19.3002 103.55 19.3802 103.55 19.4902C103.55 19.6102 103.54 19.7302 103.51 19.8502L103.42 20.2502C103.34 20.5002 103.13 20.6302 102.77 20.6302H99.94C98.78 20.6302 97.88 20.8802 97.23 21.3902C96.58 21.9002 96.1 22.7602 95.8 23.9602C95.68 24.4902 95.63 24.9402 95.63 25.3202ZM99.44 23.9802C99.66 23.1502 100.26 22.7302 101.24 22.7302H102.89L102.23 25.4402H100.83C100.32 25.4402 99.94 25.3802 99.71 25.2602C99.48 25.1402 99.36 24.9202 99.36 24.6002C99.36 24.4002 99.39 24.1902 99.45 23.9802H99.44Z" fill="#F1821A"/>
<path d="M82.05 17.1301C82.17 17.1801 82.33 17.2001 82.52 17.2001H85.47L85.84 15.7101L85.86 15.4901C85.86 15.3201 85.81 15.2001 85.7 15.1401C85.59 15.0801 85.43 15.0601 85.21 15.0601H82.28L81.93 16.4001C81.9 16.4901 81.89 16.5601 81.88 16.6101C81.88 16.6601 81.87 16.7001 81.87 16.7401C81.87 16.9501 81.93 17.0801 82.05 17.1301Z" fill="#F1821A"/>
<path d="M81.58 18.5101V18.7701L79.5 26.8301C79.43 27.0801 79.4 27.2801 79.4 27.4501C79.4 27.6201 79.44 27.7301 79.53 27.8101C79.62 27.8901 79.78 27.9301 80.01 27.9301H83.13L83.19 27.6301C82.89 27.6301 82.74 27.5101 82.74 27.2801V27.0201L84.82 18.9601C84.89 18.7101 84.92 18.5301 84.92 18.4201C84.92 18.2501 84.88 18.1101 84.8 18.0101C84.72 17.9101 84.56 17.8601 84.31 17.8601H81.19L81.13 18.1601C81.43 18.1601 81.58 18.2801 81.58 18.5201V18.5101Z" fill="#F1821A"/>
<path d="M43.77 29.8H50.15C50.62 29.8 51.03 29.95 51.38 30.25C51.73 30.55 51.9 30.88 51.9 31.25L52.64 46.37C52.64 47.07 52.95 47.42 53.58 47.42H54.42L53.81 49.8301C53.7 50.2401 53.62 50.49 53.57 50.57C53.37 50.9401 52.91 51.1301 52.19 51.1301H34.07C33.64 51.1301 33.34 51.04 33.16 50.85C32.98 50.66 32.89 50.42 32.89 50.1101L32.96 49.6501L33.53 47.43H34.48C34.82 47.43 35.08 47.35 35.26 47.18C35.44 47.0201 35.6 46.8 35.73 46.53L44.2 32C44.36 31.71 44.44 31.4401 44.44 31.1901C44.44 30.9401 44.37 30.73 44.22 30.56C44.07 30.38 43.89 30.3 43.66 30.3L43.76 29.81L43.77 29.8ZM47.04 47.42L46.64 35.8801L40.36 47.42H47.04Z" fill="#F1821A"/>
<path d="M66.47 31.8301H67.84C70.73 31.8301 72.78 32.4501 73.99 33.6901C74.93 34.6601 75.4 36.1101 75.4 38.0201C75.4 38.4001 75.35 38.9101 75.25 39.5301C75.15 40.1501 75.04 40.6901 74.92 41.1401L74.22 43.8201C73.53 46.5101 72.5 48.3301 71.13 49.2901C69.76 50.2501 67.5 50.7301 64.33 50.7301H63.37C60.9 50.7301 58.99 50.3101 57.63 49.4801C56.08 48.5301 55.3 47.0501 55.3 45.0401C55.3 44.3401 55.41 43.5501 55.63 42.6701L56.33 39.8201C57.07 36.7901 58.18 34.7101 59.65 33.5501C61.12 32.4001 63.4 31.8201 66.48 31.8201L66.47 31.8301ZM66.69 35.7201C65.41 35.7201 64.46 36.0101 63.86 36.5801C63.25 37.1601 62.73 38.3701 62.29 40.2201L61.66 42.7301C61.56 43.1401 61.49 43.4801 61.44 43.7601C61.39 44.0401 61.37 44.3301 61.37 44.6201C61.37 46.0901 62.23 46.8201 63.96 46.8201C65.22 46.8201 66.16 46.5301 66.77 45.9401C67.39 45.3501 67.89 44.2901 68.29 42.7601L68.88 40.5901C69.18 39.5301 69.33 38.6401 69.33 37.9101C69.33 36.4401 68.45 35.7101 66.7 35.7101L66.69 35.7201Z" fill="#F1821A"/>
<path d="M124.12 38.1101L121.35 48.8001V49.2701C121.35 49.7001 121.62 49.9201 122.16 49.9201L122.05 50.4601H116.38C115.96 50.4601 115.67 50.3901 115.51 50.2401C115.35 50.0901 115.27 49.8701 115.27 49.5801C115.27 49.2901 115.33 48.9101 115.45 48.4601L118.04 38.0701C118.12 37.8201 118.15 37.5901 118.15 37.3601C118.15 36.9301 118 36.6001 117.7 36.3801C117.4 36.1501 116.89 36.0401 116.17 36.0401C114.65 36.0401 113.73 36.7001 113.4 38.0101L110.63 48.8101V49.2901C110.63 49.7201 110.9 49.9401 111.44 49.9401L111.33 50.4801H105.66C105.24 50.4801 104.95 50.4101 104.79 50.2601C104.63 50.1101 104.55 49.8901 104.55 49.6001C104.55 49.3101 104.61 48.9301 104.73 48.4801L107.36 38.0901C107.43 37.8401 107.47 37.6101 107.47 37.3801C107.47 36.9501 107.32 36.6201 107.02 36.4001C106.72 36.1701 106.21 36.0601 105.49 36.0601C103.97 36.0601 103.05 36.7201 102.72 38.0301L99.92 48.8301V49.3101C99.92 49.7401 100.19 49.9601 100.73 49.9601L100.62 50.5001H94.95C94.53 50.5001 94.24 50.4301 94.08 50.2801C93.92 50.1301 93.84 49.9101 93.84 49.6201C93.84 49.3301 93.9 48.9501 94.03 48.5001L97.73 33.8401V33.3601C97.73 32.9301 97.46 32.7201 96.92 32.7201L97.03 32.1801H102.7C103.14 32.1801 103.44 32.2701 103.59 32.4501C103.74 32.6301 103.81 32.8801 103.81 33.2001C103.81 33.3401 103.79 33.5101 103.76 33.7101C103.72 33.9101 103.66 34.1901 103.56 34.5601H103.93L105 33.0401C105.32 32.5901 105.8 32.2801 106.43 32.1301C107.06 31.9701 108.23 31.8901 109.93 31.8901C111.09 31.8901 111.99 32.1901 112.63 32.8001C113.1 33.2501 113.41 33.8401 113.56 34.5601H113.93L115.08 33.1001C115.45 32.6301 115.99 32.3001 116.69 32.1301C117.39 31.9601 118.71 31.8801 120.63 31.8801C121.91 31.8801 122.89 32.1701 123.56 32.7601C124.23 33.3501 124.56 34.0801 124.56 34.9701C124.56 35.6001 124.54 36.0701 124.5 36.3801C124.46 36.6901 124.33 37.2801 124.1 38.1601L124.12 38.1101Z" fill="#F1821A"/>
<path d="M136.72 31.8301H138.09C140.98 31.8301 143.03 32.4501 144.24 33.6901C145.18 34.6601 145.65 36.1101 145.65 38.0201C145.65 38.4001 145.6 38.9101 145.5 39.5301C145.4 40.1501 145.29 40.6901 145.17 41.1401L144.47 43.8201C143.78 46.5101 142.75 48.3301 141.38 49.2901C140.01 50.2501 137.74 50.7301 134.58 50.7301H133.62C131.15 50.7301 129.24 50.3101 127.88 49.4801C126.32 48.5301 125.55 47.0501 125.55 45.0401C125.55 44.3401 125.66 43.5501 125.88 42.6701L126.58 39.8201C127.32 36.7901 128.43 34.7101 129.9 33.5501C131.37 32.4001 133.65 31.8201 136.73 31.8201L136.72 31.8301ZM136.94 35.7201C135.66 35.7201 134.71 36.0101 134.11 36.5801C133.5 37.1601 132.98 38.3701 132.54 40.2201L131.91 42.7301C131.81 43.1401 131.74 43.4801 131.69 43.7601C131.64 44.0401 131.62 44.3301 131.62 44.6201C131.62 46.0901 132.48 46.8201 134.21 46.8201C135.47 46.8201 136.41 46.5301 137.02 45.9401C137.64 45.3501 138.14 44.2901 138.54 42.7601L139.13 40.5901C139.43 39.5301 139.57 38.6401 139.57 37.9101C139.57 36.4401 138.69 35.7101 136.94 35.7101V35.7201Z" fill="#F1821A"/>
<path d="M155.75 34.1301L155.71 34.3301H156.01L157.05 33.0101C157.4 32.5601 157.76 32.2601 158.12 32.1301C158.64 31.9301 159.51 31.8301 160.75 31.8301C162.8 31.8301 164.29 32.3401 165.23 33.3601C166.04 34.2401 166.45 35.5301 166.45 37.2301C166.45 37.8901 166.39 38.6001 166.26 39.3701C166.14 40.1401 165.97 40.9001 165.78 41.6401C164.94 45.1501 163.86 47.4901 162.54 48.6801C161.22 49.8701 159.19 50.4601 156.44 50.4601H151.57L150.71 53.7501V54.2201C150.71 54.6501 150.98 54.8601 151.53 54.8601L151.42 55.4001H145.75C145.33 55.4001 145.04 55.3301 144.88 55.1801C144.72 55.0301 144.64 54.8101 144.64 54.5201C144.64 54.2301 144.7 53.8501 144.83 53.4001L149.86 33.7901V33.3201C149.86 32.8901 149.59 32.6801 149.05 32.6801L149.16 32.1401H154.83C155.27 32.1401 155.57 32.2301 155.72 32.4101C155.87 32.5901 155.94 32.8401 155.94 33.1601C155.94 33.3601 155.88 33.6901 155.75 34.1401V34.1301ZM152.6 46.5601H154.34C155.97 46.5601 157.09 46.2501 157.71 45.6401C158.43 44.9401 159.09 43.3601 159.71 40.9201C160.03 39.7001 160.19 38.7301 160.19 38.0301C160.19 36.4901 159.47 35.7201 158.04 35.7201C156.9 35.7201 156.12 35.9201 155.69 36.3101C155.26 36.7101 154.92 37.3901 154.67 38.3701L152.6 46.5601Z" fill="#F1821A"/>
<path d="M183 31.8301C184.43 31.8301 185.48 32.1301 186.15 32.7501C186.74 33.2901 187.04 34.0701 187.04 35.0901C187.04 35.7901 186.93 36.5501 186.7 37.3601L183.82 48.4901V48.9701C183.82 49.4001 184.09 49.6201 184.64 49.6201L184.53 50.1601H178.86C178.44 50.1601 178.15 50.0901 177.99 49.9401C177.83 49.7901 177.75 49.5701 177.75 49.2701C177.75 48.9701 177.81 48.6001 177.93 48.1401L178.12 47.4901H177.68L176.68 49.0801C176.33 49.6201 175.88 49.9801 175.33 50.1601C174.77 50.3401 173.74 50.4301 172.24 50.4301C170.51 50.4301 169.23 50.0101 168.39 49.1801C167.65 48.4401 167.28 47.3901 167.28 46.0301C167.28 45.3501 167.38 44.5801 167.58 43.7301C168.1 41.7001 168.9 40.2501 169.99 39.4001C171.08 38.5401 172.61 38.1101 174.58 38.1101H179.36C179.98 38.1101 180.35 37.9001 180.47 37.4701L180.62 36.7901L180.69 36.1801C180.69 35.7701 180.42 35.5701 179.88 35.5701H174.14C173.18 35.5701 172.7 35.2101 172.7 34.4901L172.81 33.9201L173.36 31.8501H183.03L183 31.8301ZM178.41 46.2201L179.52 41.6501H176.74C175.09 41.6501 174.07 42.3501 173.7 43.7501C173.6 44.1101 173.55 44.4601 173.55 44.8001C173.55 45.3401 173.74 45.7101 174.12 45.9201C174.5 46.1201 175.14 46.2301 176.03 46.2301H178.4L178.41 46.2201Z" fill="#F1821A"/>
<path d="M75.57 50.7301H80.63L80.72 50.2901C80.26 50.2401 80.03 49.9901 80.03 49.5301C80.03 49.3301 80.06 49.1001 80.12 48.8401L81.55 43.2301L83.79 41.4401L85.89 49.2501C86.17 50.2301 86.71 50.7301 87.51 50.7301H90.15C90.63 50.7301 90.97 50.6701 91.17 50.5401C91.37 50.4201 91.51 50.2101 91.59 49.9301L92.19 47.4401H90.93C90.59 47.4401 90.38 47.3901 90.29 47.3101C90.21 47.2201 90.12 47.0001 90.02 46.6501L87.84 38.7601L93.92 33.8501C94.4 33.4701 94.64 33.0701 94.64 32.6501C94.64 32.1001 94.22 31.8301 93.38 31.8301H88.35L88.23 32.2701C88.45 32.2701 88.61 32.3201 88.72 32.4201C88.83 32.5201 88.89 32.6401 88.89 32.7901C88.89 32.9901 88.79 33.1801 88.59 33.3401L82.87 37.8601L84.04 33.2901C84.12 32.9801 84.16 32.7401 84.16 32.6001C84.16 32.0901 83.86 31.8401 83.27 31.8401H78.2L78.11 32.2801C78.57 32.3301 78.8 32.5901 78.8 33.0501C78.8 33.2301 78.77 33.4601 78.71 33.7301L74.78 49.2901C74.7 49.6101 74.66 49.8301 74.66 49.9701C74.66 50.4801 74.96 50.7401 75.56 50.7401L75.57 50.7301Z" fill="#F1821A"/>
</g>
<defs>
<clipPath id="clip0_130_4527">
<rect width="192.95" height="69.23" fill="white"/>
</clipPath>
</defs>
</svg>
