<svg width="193" height="70" viewBox="0 0 193 70" fill="none" xmlns="http://www.w3.org/2000/svg">
<g clip-path="url(#clip0_130_4449)">
<path d="M17.91 3.92979C17.91 4.12979 12.52 3.34979 8.21001 5.38979C9.02001 9.03979 10.88 13.6898 15.06 13.5698C20.69 13.4098 19.23 2.37979 19.02 0.62979C18.95 0.0697898 14.2 -0.18021 11.86 0.11979C9.47001 0.42979 7.59001 1.10979 7.59001 1.10979C7.59001 1.10979 7.66001 2.60979 8.03001 4.55979C12.64 3.05979 17.9 3.62979 17.9 3.91979L17.91 3.92979Z" fill="white"/>
<path d="M11.03 30.2397C10.59 30.3497 10.18 30.4997 9.91001 30.6297C9.33001 30.9097 10.68 30.0197 10.45 29.3597C10.39 29.2597 10.27 29.2897 10.17 29.2997C6.96001 29.8297 5.66001 29.8697 5.67001 29.5397C5.73001 27.4997 6.53001 24.5397 6.85001 23.4697C8.97001 24.1097 11.9 23.9697 11.9 23.9697C11.63 25.4597 11.2 28.1097 11.03 30.2297V30.2397Z" fill="white"/>
<path d="M6.91 23.3999C6.59 24.4699 5.73 27.4999 5.67 29.5499C5.67 29.8699 6.96 29.8299 10.17 29.3099C10.27 29.2899 10.39 29.2699 10.45 29.3699C10.68 30.0299 9.25 30.6099 9.91 30.6399C10.76 30.6799 11.94 30.4799 12.5 30.2699C12.67 28.1499 12.83 25.2499 13.1 23.7699C13.1 23.7699 9.03 24.0499 6.91 23.3999Z" fill="white"/>
<path d="M17.36 21.4596C19.03 19.8196 18.97 16.7796 18.96 14.4196C17.47 14.2896 16.66 18.7396 15.56 18.3096C13.78 17.6096 9.70001 12.3496 9.70001 12.3496C9.70001 12.3496 9.38001 12.5496 8.85001 12.9596C9.23001 15.2796 10.68 17.9096 12.28 19.6496C13.38 20.8396 15.6 23.1896 17.36 21.4696V21.4596Z" fill="white"/>
<path d="M8.84 12.9599C8.58 11.1699 8.43 10.0099 9.8 9.07992C10.08 8.88992 10.05 7.98992 9.9 8.15992L9.58 8.56992C7.39 9.95992 8.08 11.9899 8.33 13.7999C8.33 13.8399 8.36 13.8499 8.38 13.8399C8.34 13.6999 8.31 13.5599 8.28 13.4199C8.49 13.2399 8.68 13.0899 8.85 12.9599H8.84Z" fill="white"/>
<path d="M19.08 14.4299C19.27 14.4799 19.45 14.5399 19.63 14.6299C19.63 14.6099 19.63 14.5999 19.63 14.5799C19.63 12.8799 19.25 9.72987 18.3 9.20987C18.04 9.06987 17.16 8.98987 17.15 9.20987L17.77 9.57987C18.51 10.3099 18.95 12.9099 18.95 14.6299C18.95 14.6499 18.95 14.6599 18.96 14.6699C18.96 14.5799 18.96 14.4899 18.96 14.4099C19 14.4099 19.04 14.4099 19.08 14.4299Z" fill="white"/>
<path d="M16.87 22.4294C16.58 22.5594 16.3 22.6194 16.02 22.6394C15.8 26.4894 17.8 30.8994 22.32 31.0294C22.49 31.0294 22.65 31.0294 22.81 31.0294C22.85 31.0294 22.9 31.0294 22.94 31.0294C23.08 31.0294 23.21 31.0094 23.34 30.9994C23.36 30.9994 23.38 30.9994 23.4 30.9994C23.55 30.9794 23.7 30.9594 23.84 30.9294C23.88 30.9294 23.91 30.9194 23.95 30.9094C24.07 30.8894 24.18 30.8594 24.3 30.8194C24.33 30.8194 24.36 30.8094 24.38 30.7994C24.51 30.7594 24.65 30.7094 24.78 30.6594C24.81 30.6494 24.83 30.6394 24.86 30.6294C24.97 30.5894 25.07 30.5394 25.17 30.4894C25.2 30.4794 25.22 30.4694 25.25 30.4494C25.37 30.3894 25.49 30.3294 25.61 30.2594L25.65 30.2294C25.75 30.1694 25.85 30.0994 25.95 30.0294C25.97 30.0094 26 29.9994 26.02 29.9794C26.24 29.8194 26.45 29.6494 26.64 29.4594C26.66 29.4394 26.68 29.4194 26.7 29.4094C26.89 29.2194 27.08 29.0094 27.25 28.7994C27.26 28.7794 27.28 28.7694 27.29 28.7494C27.37 28.6494 27.45 28.5394 27.52 28.4394V28.4194C27.62 28.2994 27.69 28.1794 27.77 28.0594C27.77 28.0494 27.78 28.0394 27.79 28.0294C27.86 27.9094 27.93 27.7994 27.99 27.6794C27.99 27.6694 28 27.6594 28.01 27.6494C28.08 27.5194 28.15 27.3894 28.21 27.2494C28.61 26.4094 28.91 25.4894 29.11 24.5694C29.36 23.4394 29.47 22.4394 29.5 21.4294C29.17 20.9994 28.89 20.6594 29.03 19.9094C28.63 20.2794 28.46 20.4994 28.24 20.7494C27.64 21.4294 28.25 22.6894 28.26 23.9394C27.87 26.4294 24.57 28.9594 24.35 27.7494C23.57 20.2594 21.91 15.7894 19.63 14.6694C19.63 20.1894 18.2 21.8494 16.86 22.4594L16.87 22.4294Z" fill="white"/>
<path d="M31.73 22.6197C31.87 22.2097 31.95 22.0697 32.13 21.8097C31.46 22.1997 30.65 22.0697 30.04 21.7497C29.28 28.0597 27.16 31.4597 22.65 31.5397C17.74 31.6197 15.06 26.8197 15.53 22.6297C14.28 22.4797 13.16 21.4697 12.44 20.7597C12.32 20.6397 12.19 20.5097 12.08 20.3897C12.04 20.3397 11.99 20.2997 11.95 20.2497C11.88 20.1697 11.8 20.0897 11.73 20.0097C11.68 19.9497 11.63 19.8897 11.57 19.8297C11.51 19.7597 11.45 19.6897 11.39 19.6197C11.33 19.5497 11.28 19.4797 11.22 19.4197C11.17 19.3497 11.11 19.2897 11.06 19.2197C11 19.1497 10.95 19.0697 10.89 18.9997C10.84 18.9397 10.8 18.8697 10.75 18.8097C10.69 18.7297 10.63 18.6497 10.58 18.5597C10.54 18.4997 10.5 18.4397 10.46 18.3797C10.4 18.2897 10.34 18.2097 10.28 18.1197C10.24 18.0597 10.21 18.0097 10.17 17.9497C10.11 17.8597 10.05 17.7597 10 17.6697C9.97001 17.6197 9.94 17.5597 9.91 17.5097C9.85 17.4097 9.8 17.3097 9.74 17.2097C9.71 17.1597 9.69 17.1097 9.66 17.0597C9.6 16.9597 9.55 16.8497 9.49 16.7397C9.47 16.6997 9.45 16.6497 9.42 16.6097C9.36 16.4997 9.31001 16.3897 9.25 16.2697C9.23 16.2297 9.21 16.1897 9.2 16.1497C9.15 16.0297 9.09 15.9097 9.04 15.7897C9.03 15.7597 9.01 15.7197 9 15.6897C8.95 15.5697 8.90001 15.4397 8.85001 15.3097C8.84 15.2797 8.83 15.2497 8.82 15.2197C8.77 15.0897 8.72001 14.9497 8.67 14.8197C8.67 14.7997 8.66 14.7697 8.65 14.7497C8.6 14.6097 8.56001 14.4697 8.51 14.3197C8.51 14.3097 8.51 14.2897 8.5 14.2797C8.41 13.9897 8.33 13.6997 8.26 13.4097C5.81001 15.4997 0.950005 20.5997 0.0200049 29.1997C-0.239995 31.5897 1.86 33.7297 5.41 34.0697C5.37 34.0897 3.23001 46.6397 3.01 49.2197C2.96001 49.7697 7.36001 50.3697 12.02 50.5597C11.69 51.2597 7.56 50.4797 7.59 51.0097C8.04 58.3097 8.38 67.7197 8.38 67.7197L12.69 68.0397C12.69 68.0397 17.18 70.1897 17.52 68.6997C17.74 67.7597 13.01 65.9597 13.04 65.2997C13.25 61.3097 13.53 54.6797 13.81 50.6097C14.03 50.6097 14.25 50.6097 14.47 50.6197C14.49 56.0097 14.1 65.6197 14.1 65.6197L16.67 67.1297C16.67 67.1297 18.39 67.1797 18.62 67.2997C20.67 68.3197 22.57 68.2997 22.72 67.7297C22.99 66.7297 18.62 64.8797 18.67 64.6697C18.83 64.1197 19.66 56.7197 20.36 50.2897C21.81 50.0497 22.76 49.6697 22.81 49.1097C23.24 44.2097 23.01 38.1497 22.64 32.9597C22.94 33.4897 23.22 33.8797 23.8 34.0597C25.41 34.5697 27.57 33.7297 31.56 28.2997C31.31 27.5897 30.94 26.8697 30.5 26.2097C30.81 25.6397 31.14 25.0397 31.49 24.3397C31.77 23.7897 31.51 23.1397 31.73 22.5997V22.6197ZM8.18001 33.7097L8.75 29.9997C8.75 29.9997 5.57 30.7697 5.22 29.7197C4.58 27.8197 6.73 22.9597 6.79 22.9797C9.33 23.7297 13.69 23.3597 13.68 23.4097C13.37 25.5797 12.99 29.5297 13.07 31.8497C13 32.3097 11.04 33.8897 8.17 33.7197L8.18001 33.7097Z" fill="white"/>
<path d="M33.14 19.7797C33.14 20.7697 32.26 21.5697 31.18 21.5697C30.1 21.5697 29.22 20.7697 29.22 19.7797C29.22 18.7897 30.1 17.9897 31.18 17.9897C32.26 17.9897 33.14 18.7897 33.14 19.7797Z" fill="white"/>
<path d="M110.49 27.6796H122.28C122.66 27.6796 122.91 27.6196 123.03 27.4896C123.15 27.3696 123.25 27.1396 123.33 26.8396L123.73 25.2696H123.19C122.97 25.2696 122.82 25.2196 122.73 25.1196C122.64 25.0196 122.59 24.8396 122.57 24.5896L122.09 14.7696C122.09 14.5396 121.98 14.3196 121.75 14.1296C121.52 13.9296 121.26 13.8296 120.95 13.8296H116.8L116.74 14.1496C116.89 14.1496 117.02 14.2096 117.1 14.3196C117.19 14.4296 117.24 14.5696 117.24 14.7296C117.24 14.8896 117.19 15.0696 117.09 15.2596L111.58 24.6996C111.38 25.0896 111.11 25.2796 110.76 25.2796H110.15L109.77 26.7296C109.74 26.8296 109.73 26.9296 109.73 27.0296C109.73 27.4696 109.99 27.6896 110.5 27.6896L110.49 27.6796ZM118.66 17.7796L118.92 25.2496H114.57L118.66 17.7796Z" fill="white"/>
<path d="M125.52 27.0597C126.39 27.5997 127.55 27.8697 129.01 27.8697H129.58C130.85 27.8697 131.86 27.7497 132.61 27.4997C133.36 27.2597 133.95 26.8397 134.38 26.2497C134.81 25.6597 135.17 24.8297 135.44 23.7697L135.86 22.1897C136.05 21.4997 136.14 20.8897 136.14 20.3397C136.14 19.2097 135.82 18.3097 135.19 17.6497C134.56 16.9897 133.38 16.6597 131.66 16.6597H130.85C129.61 16.6597 128.61 16.8097 127.84 17.0997C127.08 17.3897 126.46 17.8697 125.99 18.5497C125.52 19.2297 125.13 20.1797 124.83 21.3997L124.41 23.0897C124.28 23.6097 124.21 24.0797 124.21 24.4997C124.21 25.6797 124.65 26.5297 125.51 27.0697L125.52 27.0597ZM127.99 23.1197L128.36 21.6297C128.54 20.8897 128.74 20.3197 128.95 19.9297C129.17 19.5397 129.43 19.2897 129.73 19.1497C130.04 19.0197 130.45 18.9497 130.97 18.9497C131.53 18.9497 131.93 19.0597 132.17 19.2697C132.41 19.4797 132.53 19.8097 132.53 20.2597C132.53 20.7097 132.44 21.2297 132.27 21.8397L131.92 23.1197C131.69 24.0297 131.39 24.6597 131.02 25.0097C130.65 25.3597 130.09 25.5397 129.35 25.5397C128.83 25.5397 128.44 25.4297 128.19 25.2197C127.94 25.0097 127.82 24.6797 127.82 24.2297C127.82 23.9497 127.88 23.5697 127.99 23.0997V23.1197Z" fill="white"/>
<path d="M141.02 27.8598H141.5C142.76 27.8598 143.75 27.7398 144.49 27.4898C145.22 27.2398 145.8 26.8298 146.21 26.2398C146.63 25.6598 146.97 24.8298 147.25 23.7398L147.53 22.6798C147.77 21.7998 147.88 21.0798 147.88 20.5298C147.88 19.7998 147.79 19.1898 147.6 18.7198C147.41 18.2398 147.05 17.8698 146.5 17.5898C145.95 17.3098 145.17 17.1698 144.15 17.1698C143.44 17.1698 142.88 17.2898 142.46 17.5498C142.04 17.7998 141.68 18.1598 141.38 18.6198H141.1L141.36 17.8398C141.52 17.2798 141.8 16.8298 142.19 16.5098C142.59 16.1898 143.08 16.0298 143.66 16.0298H146.89C147.76 16.0298 148.24 15.8098 148.33 15.3698L148.73 13.8198H142.8C142.01 13.8198 141.32 13.9398 140.73 14.1898C140.15 14.4398 139.63 14.8198 139.19 15.3498C138.75 15.8698 138.36 16.5398 138.02 17.3598C137.68 18.1798 137.36 19.1998 137.06 20.3998L136.66 22.0098C136.42 22.9598 136.31 23.7498 136.31 24.3998C136.31 25.5298 136.67 26.3898 137.39 26.9798C138.11 27.5698 139.31 27.8598 140.98 27.8598H141.02ZM140.01 23.1198L140.25 22.1598C140.43 21.4098 140.63 20.8398 140.84 20.4598C141.05 20.0798 141.32 19.8198 141.62 19.6898C141.93 19.5598 142.34 19.4898 142.86 19.4898C143.41 19.4898 143.79 19.5898 144.03 19.7798C144.26 19.9798 144.38 20.2898 144.38 20.7098C144.38 21.0298 144.28 21.5798 144.07 22.3598L143.85 23.1198C143.68 23.7298 143.5 24.1998 143.31 24.5498C143.12 24.8998 142.89 25.1498 142.61 25.3098C142.33 25.4698 141.96 25.5498 141.51 25.5498C140.93 25.5498 140.5 25.4698 140.21 25.2998C139.93 25.1398 139.79 24.8498 139.79 24.4398C139.79 24.1898 139.86 23.7498 140.01 23.1098V23.1198Z" fill="white"/>
<path d="M149.84 17.5399C149.84 17.5399 149.83 17.6799 149.8 17.8199L146.86 29.4499C146.79 29.7399 146.75 29.9699 146.75 30.1199C146.75 30.4699 146.97 30.6399 147.41 30.6399H150.77L150.84 30.3199C150.54 30.3199 150.38 30.1899 150.36 29.9399C150.36 29.8899 150.37 29.7899 150.4 29.6599L150.9 27.6899H153.78C154.61 27.6899 155.31 27.6099 155.87 27.4599C156.43 27.3099 156.93 27.0499 157.35 26.6599C157.77 26.2799 158.14 25.7499 158.45 25.0799C158.76 24.4099 159.04 23.5399 159.29 22.4699C159.55 21.4899 159.68 20.6199 159.68 19.8399C159.68 18.8599 159.42 18.0799 158.9 17.5199C158.38 16.9499 157.51 16.6699 156.31 16.6699C155.59 16.6699 155.1 16.7199 154.83 16.8299C154.56 16.9399 154.32 17.1199 154.11 17.3799L153.49 18.1599H153.32L153.34 18.0399C153.41 17.7699 153.45 17.5799 153.45 17.4599C153.45 17.0599 153.23 16.8499 152.79 16.8499H149.43L149.36 17.1799C149.66 17.1799 149.82 17.3099 149.84 17.5599V17.5399ZM152.7 20.5299C152.8 20.1299 152.91 19.8299 153.04 19.6099C153.17 19.3999 153.36 19.2299 153.62 19.1199C153.88 19.0099 154.24 18.9599 154.7 18.9599C155.55 18.9599 155.97 19.4199 155.97 20.3299C155.97 20.7599 155.88 21.3299 155.69 22.0399C155.44 23.0199 155.2 23.7499 154.94 24.2199C154.69 24.6899 154.39 24.9999 154.03 25.1499C153.67 25.2999 153.16 25.3699 152.5 25.3699H151.46L152.69 20.5299H152.7Z" fill="white"/>
<path d="M161.2 27.0597C162.07 27.5997 163.23 27.8697 164.68 27.8697H165.25C166.52 27.8697 167.53 27.7497 168.28 27.4997C169.03 27.2597 169.62 26.8397 170.05 26.2497C170.48 25.6597 170.84 24.8297 171.11 23.7697L171.53 22.1897C171.72 21.4997 171.81 20.8897 171.81 20.3397C171.81 19.2097 171.49 18.3097 170.86 17.6497C170.23 16.9897 169.05 16.6597 167.33 16.6597H166.52C165.28 16.6597 164.28 16.8097 163.52 17.0997C162.76 17.3897 162.14 17.8697 161.67 18.5497C161.2 19.2297 160.81 20.1797 160.51 21.3997L160.09 23.0897C159.96 23.6097 159.89 24.0797 159.89 24.4997C159.89 25.6797 160.32 26.5297 161.19 27.0697L161.2 27.0597ZM163.67 23.1197L164.05 21.6297C164.23 20.8897 164.43 20.3197 164.64 19.9297C164.86 19.5397 165.12 19.2897 165.42 19.1497C165.73 19.0197 166.14 18.9497 166.66 18.9497C167.22 18.9497 167.62 19.0597 167.86 19.2697C168.1 19.4797 168.22 19.8097 168.22 20.2597C168.22 20.7097 168.13 21.2297 167.96 21.8397L167.61 23.1197C167.38 24.0297 167.08 24.6597 166.71 25.0097C166.34 25.3597 165.78 25.5397 165.04 25.5397C164.52 25.5397 164.13 25.4297 163.88 25.2197C163.63 25.0097 163.51 24.6797 163.51 24.2297C163.51 23.9497 163.57 23.5697 163.68 23.0997L163.67 23.1197Z" fill="white"/>
<path d="M171.9 26.4898C171.82 26.7998 171.79 27.0198 171.79 27.1598C171.79 27.5098 172.01 27.6798 172.45 27.6798H175.81L175.88 27.3598C175.58 27.3598 175.42 27.2298 175.4 26.9798C175.4 26.9298 175.42 26.8298 175.45 26.6898L177.01 20.4198C177.11 20.0198 177.29 19.7198 177.52 19.5298C177.75 19.3398 178.1 19.2398 178.56 19.2398H180.43C180.93 19.2398 181.32 19.1698 181.58 19.0398C181.85 18.9098 182.03 18.6698 182.12 18.3298L182.49 16.8198H173.71L173.65 17.1498C173.95 17.1498 174.11 17.2798 174.13 17.5298C174.13 17.5898 174.11 17.6898 174.08 17.8098L171.91 26.4798L171.9 26.4898Z" fill="white"/>
<path d="M192 17.6399C191.37 16.9799 190.19 16.6499 188.47 16.6499H187.66C186.42 16.6499 185.42 16.7999 184.66 17.0899C183.9 17.3799 183.28 17.8599 182.81 18.5399C182.34 19.2199 181.95 20.1699 181.65 21.3899L181.23 23.0799C181.1 23.5999 181.03 24.0699 181.03 24.4899C181.03 25.6699 181.46 26.5199 182.33 27.0599C183.2 27.5999 184.36 27.8699 185.81 27.8699H186.38C187.65 27.8699 188.66 27.7499 189.41 27.4999C190.16 27.2599 190.75 26.8399 191.18 26.2499C191.62 25.6599 191.97 24.8299 192.24 23.7699L192.66 22.1899C192.85 21.4999 192.94 20.8899 192.94 20.3399C192.94 19.2099 192.63 18.3099 191.99 17.6499L192 17.6399ZM189.09 21.8499L188.74 23.1299C188.51 24.0399 188.21 24.6699 187.84 25.0199C187.47 25.3699 186.92 25.5499 186.17 25.5499C185.65 25.5499 185.26 25.4399 185.01 25.2299C184.76 25.0199 184.63 24.6899 184.63 24.2399C184.63 23.9599 184.69 23.5799 184.8 23.1099L185.18 21.6199C185.36 20.8799 185.56 20.3099 185.77 19.9199C185.99 19.5299 186.25 19.2799 186.55 19.1399C186.86 19.0099 187.27 18.9399 187.79 18.9399C188.35 18.9399 188.75 19.0499 188.99 19.2599C189.23 19.4699 189.35 19.7999 189.35 20.2499C189.35 20.6999 189.26 21.2199 189.09 21.8299V21.8499Z" fill="white"/>
<path d="M39.48 27.9298H43.19L43.25 27.6098C42.91 27.5698 42.75 27.3898 42.75 27.0498C42.75 26.9098 42.77 26.7398 42.82 26.5498L43.87 22.4398L45.51 21.1298L47.05 26.8598C47.26 27.5798 47.65 27.9398 48.24 27.9398H50.17C50.52 27.9398 50.77 27.8898 50.92 27.7998C51.07 27.7098 51.17 27.5598 51.22 27.3498L51.66 25.5198H50.74C50.49 25.5198 50.34 25.4898 50.27 25.4198C50.21 25.3498 50.14 25.1898 50.08 24.9398L48.48 19.1598L52.94 15.5598C53.29 15.2798 53.47 14.9898 53.47 14.6798C53.47 14.2798 53.16 14.0798 52.55 14.0798H48.86L48.77 14.3998C48.93 14.3998 49.05 14.4398 49.13 14.5098C49.21 14.5798 49.25 14.6698 49.25 14.7798C49.25 14.9298 49.18 15.0598 49.03 15.1798L44.83 18.4898L45.69 15.1398C45.75 14.9098 45.78 14.7398 45.78 14.6298C45.78 14.2598 45.56 14.0698 45.12 14.0698H41.41L41.34 14.3898C41.68 14.4298 41.85 14.6098 41.85 14.9498C41.85 15.0898 41.83 15.2498 41.79 15.4498L38.91 26.8598C38.85 27.0898 38.82 27.2598 38.82 27.3598C38.82 27.7398 39.04 27.9198 39.48 27.9198V27.9298Z" fill="white"/>
<path d="M57.47 17.7296C57.47 17.8596 57.43 17.9896 57.34 18.1296L52.11 26.8496C51.98 27.0696 51.92 27.2496 51.92 27.3896C51.92 27.7496 52.12 27.9396 52.53 27.9396H55.74L55.81 27.6196C55.46 27.6196 55.28 27.4796 55.28 27.1996C55.28 27.0696 55.32 26.9396 55.41 26.7996L58.22 21.7196L58.4 27.0596C58.4 27.3296 58.5 27.5496 58.69 27.7096C58.88 27.8696 59.15 27.9496 59.5 27.9496H62.46L62.55 27.6296C62.19 27.6296 62 27.4296 61.98 27.0496L61.41 17.8296C61.39 17.3396 61.07 17.0996 60.47 17.0996H57.15L57.06 17.4196C57.34 17.4196 57.48 17.5296 57.48 17.7396L57.47 17.7296Z" fill="white"/>
<path d="M63.76 27.9299H66.88L66.94 27.6299C66.64 27.6299 66.49 27.5099 66.49 27.2799V27.0199L68.57 18.9599C68.64 18.7099 68.67 18.5299 68.67 18.4199C68.67 18.2499 68.63 18.1099 68.55 18.0099C68.47 17.9099 68.31 17.8599 68.06 17.8599H64.94L64.88 18.1599C65.18 18.1599 65.33 18.2799 65.33 18.5199V18.7799L63.25 26.8399C63.18 27.0899 63.15 27.2899 63.15 27.4599C63.15 27.6299 63.2 27.7399 63.28 27.8199C63.36 27.8999 63.53 27.9399 63.76 27.9399V27.9299Z" fill="white"/>
<path d="M65.79 17.1301C65.91 17.1801 66.07 17.2001 66.26 17.2001H69.21L69.58 15.7101L69.6 15.4901C69.6 15.3201 69.55 15.2001 69.44 15.1401C69.33 15.0801 69.17 15.0601 68.95 15.0601H66.02L65.67 16.4001C65.64 16.4901 65.62 16.5601 65.62 16.6101C65.62 16.6601 65.62 16.7001 65.62 16.7401C65.62 16.9501 65.68 17.0801 65.8 17.1301H65.79Z" fill="white"/>
<path d="M70.2 17.7898C70.2 17.7898 70.18 17.9098 70.15 18.0698L67.96 26.7398C67.89 27.0198 67.85 27.2498 67.85 27.4098C67.85 27.7598 68.07 27.9298 68.51 27.9298H71.87L71.93 27.6098C71.63 27.6098 71.47 27.4798 71.45 27.2298C71.45 27.1798 71.46 27.0798 71.49 26.9398L72.41 23.3898H75.51L74.65 26.7398C74.58 27.0298 74.54 27.2498 74.54 27.4098C74.54 27.7598 74.76 27.9298 75.19 27.9298H78.55L78.61 27.6098C78.31 27.6098 78.15 27.4798 78.13 27.2298C78.13 27.1798 78.14 27.0798 78.17 26.9398L80.37 18.2698C80.45 17.9898 80.48 17.7898 80.48 17.6898C80.48 17.2898 80.26 17.0898 79.82 17.0898H76.46L76.4 17.4098C76.7 17.4098 76.86 17.5398 76.88 17.7898C76.88 17.8398 76.86 17.9298 76.84 18.0698L76.07 21.0798H72.98L73.68 18.2698C73.75 17.9998 73.79 17.8098 73.79 17.6898C73.79 17.2898 73.57 17.0898 73.13 17.0898H69.78L69.71 17.4098C70.01 17.4098 70.17 17.5398 70.2 17.7898Z" fill="white"/>
<path d="M87.23 14.7796C87.23 14.8396 87.22 14.9296 87.19 15.0596L84.23 26.7496C84.15 27.0296 84.12 27.2596 84.12 27.4196C84.12 27.7696 84.34 27.9396 84.78 27.9396H88.14L88.21 27.6196C87.91 27.6196 87.75 27.4896 87.73 27.2396C87.73 27.1896 87.74 27.0896 87.77 26.9496L88.87 22.6396H90.21C91.04 22.6396 91.46 22.8496 91.46 23.2896C91.46 23.4296 91.44 23.5896 91.39 23.7696L90.63 26.7596C90.55 27.0396 90.52 27.2696 90.52 27.4296C90.52 27.7796 90.74 27.9496 91.18 27.9496H94.54L94.6 27.6296C94.3 27.6296 94.14 27.4996 94.12 27.2496C94.12 27.1996 94.13 27.0996 94.16 26.9596L95.17 23.0496C95.22 22.8296 95.24 22.6096 95.24 22.3596C95.24 21.8796 95.03 21.4796 94.6 21.1596C94.18 20.8396 93.56 20.6796 92.75 20.6796H92.13L95.65 17.7696C95.77 17.6896 95.82 17.5696 95.82 17.4296C95.82 17.3496 95.78 17.2696 95.71 17.2096C95.64 17.1396 95.53 17.1096 95.38 17.1096H92.11L92.05 17.4296C92.28 17.4496 92.4 17.5196 92.4 17.6496C92.4 17.7196 92.34 17.8096 92.23 17.9096L89.42 20.4396L90.74 15.2796C90.81 14.9996 90.85 14.8096 90.85 14.6996C90.85 14.2996 90.63 14.0996 90.19 14.0996H86.83L86.77 14.4196C87.07 14.4196 87.23 14.5496 87.25 14.7996L87.23 14.7796Z" fill="white"/>
<path d="M95.63 25.3199C95.63 26.1299 95.86 26.7699 96.33 27.2299C96.8 27.6999 97.54 27.9299 98.57 27.9299C99.45 27.9299 100.07 27.8699 100.4 27.7599C100.74 27.6499 101 27.4299 101.2 27.1299L101.79 26.1899H102.05L101.94 26.5699C101.86 26.8799 101.83 27.0999 101.83 27.2399C101.83 27.5899 102.05 27.7599 102.49 27.7599H105.85L105.91 27.4399C105.61 27.4399 105.45 27.3099 105.43 27.0599C105.43 27.0099 105.44 26.9099 105.47 26.7799L107.14 20.1999C107.27 19.6999 107.34 19.2499 107.34 18.8299C107.34 17.5599 106.54 16.9199 104.94 16.9199H99.21L98.88 18.1499C98.83 18.2899 98.81 18.3999 98.81 18.4899C98.81 18.9199 99.1 19.1299 99.67 19.1299H103.07C103.19 19.1299 103.3 19.1599 103.4 19.2299C103.5 19.2999 103.55 19.3799 103.55 19.4899C103.55 19.6099 103.54 19.7299 103.51 19.8499L103.42 20.2499C103.34 20.4999 103.13 20.6299 102.77 20.6299H99.94C98.78 20.6299 97.88 20.8799 97.23 21.3899C96.58 21.8999 96.1 22.7599 95.8 23.9599C95.68 24.4899 95.63 24.9399 95.63 25.3199ZM99.44 23.9799C99.66 23.1499 100.26 22.7299 101.24 22.7299H102.89L102.23 25.4399H100.83C100.32 25.4399 99.94 25.3799 99.71 25.2599C99.48 25.1399 99.36 24.9199 99.36 24.5999C99.36 24.3999 99.39 24.1899 99.45 23.9799H99.44Z" fill="white"/>
<path d="M82.05 17.1301C82.17 17.1801 82.33 17.2001 82.52 17.2001H85.47L85.84 15.7101L85.86 15.4901C85.86 15.3201 85.81 15.2001 85.7 15.1401C85.59 15.0801 85.43 15.0601 85.21 15.0601H82.28L81.93 16.4001C81.9 16.4901 81.89 16.5601 81.88 16.6101C81.88 16.6601 81.87 16.7001 81.87 16.7401C81.87 16.9501 81.93 17.0801 82.05 17.1301Z" fill="white"/>
<path d="M81.58 18.5099V18.7699L79.5 26.8299C79.43 27.0799 79.4 27.2799 79.4 27.4499C79.4 27.6199 79.44 27.7299 79.53 27.8099C79.62 27.8899 79.78 27.9299 80.01 27.9299H83.13L83.19 27.6299C82.89 27.6299 82.74 27.5099 82.74 27.2799V27.0199L84.82 18.9599C84.89 18.7099 84.92 18.5299 84.92 18.4199C84.92 18.2499 84.88 18.1099 84.8 18.0099C84.72 17.9099 84.56 17.8599 84.31 17.8599H81.19L81.13 18.1599C81.43 18.1599 81.58 18.2799 81.58 18.5199V18.5099Z" fill="white"/>
<path d="M43.77 29.7998H50.15C50.62 29.7998 51.03 29.9498 51.38 30.2498C51.73 30.5498 51.9 30.8798 51.9 31.2498L52.64 46.3698C52.64 47.0698 52.95 47.4198 53.58 47.4198H54.42L53.81 49.8298C53.7 50.2398 53.62 50.4898 53.57 50.5698C53.37 50.9398 52.91 51.1298 52.19 51.1298H34.07C33.64 51.1298 33.34 51.0398 33.16 50.8498C32.98 50.6598 32.89 50.4198 32.89 50.1098L32.96 49.6498L33.53 47.4298H34.48C34.82 47.4298 35.08 47.3498 35.26 47.1798C35.44 47.0198 35.6 46.7998 35.73 46.5298L44.2 31.9998C44.36 31.7098 44.44 31.4398 44.44 31.1898C44.44 30.9398 44.37 30.7298 44.22 30.5598C44.07 30.3798 43.89 30.2998 43.66 30.2998L43.76 29.8098L43.77 29.7998ZM47.04 47.4198L46.64 35.8798L40.36 47.4198H47.04Z" fill="white"/>
<path d="M66.47 31.8298H67.84C70.73 31.8298 72.78 32.4498 73.99 33.6898C74.93 34.6598 75.4 36.1098 75.4 38.0198C75.4 38.3998 75.35 38.9098 75.25 39.5298C75.15 40.1498 75.04 40.6898 74.92 41.1398L74.22 43.8198C73.53 46.5098 72.5 48.3298 71.13 49.2898C69.76 50.2498 67.5 50.7298 64.33 50.7298H63.37C60.9 50.7298 58.99 50.3098 57.63 49.4798C56.08 48.5298 55.3 47.0498 55.3 45.0398C55.3 44.3398 55.41 43.5498 55.63 42.6698L56.33 39.8198C57.07 36.7898 58.18 34.7098 59.65 33.5498C61.12 32.3998 63.4 31.8198 66.48 31.8198L66.47 31.8298ZM66.69 35.7198C65.41 35.7198 64.46 36.0098 63.86 36.5798C63.25 37.1598 62.73 38.3698 62.29 40.2198L61.66 42.7298C61.56 43.1398 61.49 43.4798 61.44 43.7598C61.39 44.0398 61.37 44.3298 61.37 44.6198C61.37 46.0898 62.23 46.8198 63.96 46.8198C65.22 46.8198 66.16 46.5298 66.77 45.9398C67.39 45.3498 67.89 44.2898 68.29 42.7598L68.88 40.5898C69.18 39.5298 69.33 38.6398 69.33 37.9098C69.33 36.4398 68.45 35.7098 66.7 35.7098L66.69 35.7198Z" fill="white"/>
<path d="M124.12 38.1099L121.35 48.7999V49.2699C121.35 49.6999 121.62 49.9199 122.16 49.9199L122.05 50.4599H116.38C115.96 50.4599 115.67 50.3899 115.51 50.2399C115.35 50.0899 115.27 49.8699 115.27 49.5799C115.27 49.2899 115.33 48.9099 115.45 48.4599L118.04 38.0699C118.12 37.8199 118.15 37.5899 118.15 37.3599C118.15 36.9299 118 36.5999 117.7 36.3799C117.4 36.1499 116.89 36.0399 116.17 36.0399C114.65 36.0399 113.73 36.6999 113.4 38.0099L110.63 48.8099V49.2899C110.63 49.7199 110.9 49.9399 111.44 49.9399L111.33 50.4799H105.66C105.24 50.4799 104.95 50.4099 104.79 50.2599C104.63 50.1099 104.55 49.8899 104.55 49.5999C104.55 49.3099 104.61 48.9299 104.73 48.4799L107.36 38.0899C107.43 37.8399 107.47 37.6099 107.47 37.3799C107.47 36.9499 107.32 36.6199 107.02 36.3999C106.72 36.1699 106.21 36.0599 105.49 36.0599C103.97 36.0599 103.05 36.7199 102.72 38.0299L99.92 48.8299V49.3099C99.92 49.7399 100.19 49.9599 100.73 49.9599L100.62 50.4999H94.95C94.53 50.4999 94.24 50.4299 94.08 50.2799C93.92 50.1299 93.84 49.9099 93.84 49.6199C93.84 49.3299 93.9 48.9499 94.03 48.4999L97.73 33.8399V33.3599C97.73 32.9299 97.46 32.7199 96.92 32.7199L97.03 32.1799H102.7C103.14 32.1799 103.44 32.2699 103.59 32.4499C103.74 32.6299 103.81 32.8799 103.81 33.1999C103.81 33.3399 103.79 33.5099 103.76 33.7099C103.72 33.9099 103.66 34.1899 103.56 34.5599H103.93L105 33.0399C105.32 32.5899 105.8 32.2799 106.43 32.1299C107.06 31.9699 108.23 31.8899 109.93 31.8899C111.09 31.8899 111.99 32.1899 112.63 32.7999C113.1 33.2499 113.41 33.8399 113.56 34.5599H113.93L115.08 33.0999C115.45 32.6299 115.99 32.2999 116.69 32.1299C117.39 31.9599 118.71 31.8799 120.63 31.8799C121.91 31.8799 122.89 32.1699 123.56 32.7599C124.23 33.3499 124.56 34.0799 124.56 34.9699C124.56 35.5999 124.54 36.0699 124.5 36.3799C124.46 36.6899 124.33 37.2799 124.1 38.1599L124.12 38.1099Z" fill="white"/>
<path d="M136.72 31.8298H138.09C140.98 31.8298 143.03 32.4498 144.24 33.6898C145.18 34.6598 145.65 36.1098 145.65 38.0198C145.65 38.3998 145.6 38.9098 145.5 39.5298C145.4 40.1498 145.29 40.6898 145.17 41.1398L144.47 43.8198C143.78 46.5098 142.75 48.3298 141.38 49.2898C140.01 50.2498 137.74 50.7298 134.58 50.7298H133.62C131.15 50.7298 129.24 50.3098 127.88 49.4798C126.32 48.5298 125.55 47.0498 125.55 45.0398C125.55 44.3398 125.66 43.5498 125.88 42.6698L126.58 39.8198C127.32 36.7898 128.43 34.7098 129.9 33.5498C131.37 32.3998 133.65 31.8198 136.73 31.8198L136.72 31.8298ZM136.94 35.7198C135.66 35.7198 134.71 36.0098 134.11 36.5798C133.5 37.1598 132.98 38.3698 132.54 40.2198L131.91 42.7298C131.81 43.1398 131.74 43.4798 131.69 43.7598C131.64 44.0398 131.62 44.3298 131.62 44.6198C131.62 46.0898 132.48 46.8198 134.21 46.8198C135.47 46.8198 136.41 46.5298 137.02 45.9398C137.64 45.3498 138.14 44.2898 138.54 42.7598L139.13 40.5898C139.43 39.5298 139.57 38.6398 139.57 37.9098C139.57 36.4398 138.69 35.7098 136.94 35.7098V35.7198Z" fill="white"/>
<path d="M155.75 34.1296L155.71 34.3296H156.01L157.05 33.0096C157.4 32.5596 157.76 32.2596 158.12 32.1296C158.64 31.9296 159.51 31.8296 160.75 31.8296C162.8 31.8296 164.29 32.3396 165.23 33.3596C166.04 34.2396 166.45 35.5296 166.45 37.2296C166.45 37.8896 166.39 38.5996 166.26 39.3696C166.14 40.1396 165.97 40.8996 165.78 41.6396C164.94 45.1496 163.86 47.4896 162.54 48.6796C161.22 49.8696 159.19 50.4596 156.44 50.4596H151.57L150.71 53.7496V54.2196C150.71 54.6496 150.98 54.8596 151.53 54.8596L151.42 55.3996H145.75C145.33 55.3996 145.04 55.3296 144.88 55.1796C144.72 55.0296 144.64 54.8096 144.64 54.5196C144.64 54.2296 144.7 53.8496 144.83 53.3996L149.86 33.7896V33.3196C149.86 32.8896 149.59 32.6796 149.05 32.6796L149.16 32.1396H154.83C155.27 32.1396 155.57 32.2296 155.72 32.4096C155.87 32.5896 155.94 32.8396 155.94 33.1596C155.94 33.3596 155.88 33.6896 155.75 34.1396V34.1296ZM152.6 46.5596H154.34C155.97 46.5596 157.09 46.2496 157.71 45.6396C158.43 44.9396 159.09 43.3596 159.71 40.9196C160.03 39.6996 160.19 38.7296 160.19 38.0296C160.19 36.4896 159.47 35.7196 158.04 35.7196C156.9 35.7196 156.12 35.9196 155.69 36.3096C155.26 36.7096 154.92 37.3896 154.67 38.3696L152.6 46.5596Z" fill="white"/>
<path d="M183 31.8296C184.43 31.8296 185.48 32.1296 186.15 32.7496C186.74 33.2896 187.04 34.0696 187.04 35.0896C187.04 35.7896 186.93 36.5496 186.7 37.3596L183.82 48.4896V48.9696C183.82 49.3996 184.09 49.6196 184.64 49.6196L184.53 50.1596H178.86C178.44 50.1596 178.15 50.0896 177.99 49.9396C177.83 49.7896 177.75 49.5696 177.75 49.2696C177.75 48.9696 177.81 48.5996 177.93 48.1396L178.12 47.4896H177.68L176.68 49.0796C176.33 49.6196 175.88 49.9796 175.33 50.1596C174.77 50.3396 173.74 50.4296 172.24 50.4296C170.51 50.4296 169.23 50.0096 168.39 49.1796C167.65 48.4396 167.28 47.3896 167.28 46.0296C167.28 45.3496 167.38 44.5796 167.58 43.7296C168.1 41.6996 168.9 40.2496 169.99 39.3996C171.08 38.5396 172.61 38.1096 174.58 38.1096H179.36C179.98 38.1096 180.35 37.8996 180.47 37.4696L180.62 36.7896L180.69 36.1796C180.69 35.7696 180.42 35.5696 179.88 35.5696H174.14C173.18 35.5696 172.7 35.2096 172.7 34.4896L172.81 33.9196L173.36 31.8496H183.03L183 31.8296ZM178.41 46.2196L179.52 41.6496H176.74C175.09 41.6496 174.07 42.3496 173.7 43.7496C173.6 44.1096 173.55 44.4596 173.55 44.7996C173.55 45.3396 173.74 45.7096 174.12 45.9196C174.5 46.1196 175.14 46.2296 176.03 46.2296H178.4L178.41 46.2196Z" fill="white"/>
<path d="M75.57 50.7296H80.63L80.72 50.2896C80.26 50.2396 80.03 49.9896 80.03 49.5296C80.03 49.3296 80.06 49.0996 80.12 48.8396L81.55 43.2296L83.79 41.4396L85.89 49.2496C86.17 50.2296 86.71 50.7296 87.51 50.7296H90.15C90.63 50.7296 90.97 50.6696 91.17 50.5396C91.37 50.4196 91.51 50.2096 91.59 49.9296L92.19 47.4396H90.93C90.59 47.4396 90.38 47.3896 90.29 47.3096C90.21 47.2196 90.12 46.9996 90.02 46.6496L87.84 38.7596L93.92 33.8496C94.4 33.4696 94.64 33.0696 94.64 32.6496C94.64 32.0996 94.22 31.8296 93.38 31.8296H88.35L88.23 32.2696C88.45 32.2696 88.61 32.3196 88.72 32.4196C88.83 32.5196 88.89 32.6396 88.89 32.7896C88.89 32.9896 88.79 33.1796 88.59 33.3396L82.87 37.8596L84.04 33.2896C84.12 32.9796 84.16 32.7396 84.16 32.5996C84.16 32.0896 83.86 31.8396 83.27 31.8396H78.2L78.11 32.2796C78.57 32.3296 78.8 32.5896 78.8 33.0496C78.8 33.2296 78.77 33.4596 78.71 33.7296L74.78 49.2896C74.7 49.6096 74.66 49.8296 74.66 49.9696C74.66 50.4796 74.96 50.7396 75.56 50.7396L75.57 50.7296Z" fill="white"/>
</g>
<defs>
<clipPath id="clip0_130_4449">
<rect width="192.95" height="69.23" fill="white"/>
</clipPath>
</defs>
</svg>
