<svg width="50" height="51" viewBox="0 0 50 51" fill="none" xmlns="http://www.w3.org/2000/svg">
<g clip-path="url(#clip0_617_221)">
<circle cx="25" cy="26" r="25" fill="#F1821A"/>
<path d="M32.3125 20.5139H29.5V18.8264C29.5 17.9124 28.7266 17.1389 27.8125 17.1389H22.1875C21.2383 17.1389 20.5 17.9124 20.5 18.8264V20.5139H17.6875C16.7383 20.5139 16 21.2874 16 22.2014V32.3264C16 33.2756 16.7383 34.0139 17.6875 34.0139H32.3125C33.2266 34.0139 34 33.2756 34 32.3264V22.2014C34 21.2874 33.2266 20.5139 32.3125 20.5139ZM22.1875 18.8264H27.8125V20.5139H22.1875V18.8264ZM28.9375 28.178C28.9375 28.4944 28.6562 28.7405 28.375 28.7405H26.4766V30.6389C26.4766 30.9553 26.1953 31.2014 25.9141 31.2014H24.0859C23.8047 31.2014 23.5234 30.9553 23.5234 30.6389V28.7756H21.625C21.3086 28.7756 21.0625 28.5295 21.0625 28.2131V26.385C21.0625 26.1038 21.3086 25.8225 21.625 25.8225H23.4883V23.8889C23.4883 23.6077 23.7344 23.3264 24.0508 23.3264H25.8789C26.1602 23.3264 26.4062 23.6077 26.4062 23.8889V25.7874H28.375C28.6562 25.7874 28.9375 26.0686 28.9375 26.3499V28.178Z" fill="white"/>
</g>
<defs>
<clipPath id="clip0_617_221">
<rect width="50" height="50.1111" fill="white" transform="translate(0 0.888916)"/>
</clipPath>
</defs>
</svg>
