<svg width="50" height="51" viewBox="0 0 50 51" fill="none" xmlns="http://www.w3.org/2000/svg">
<g clip-path="url(#clip0_617_649)">
<circle cx="25" cy="26" r="25" fill="#F1821A"/>
<path d="M20.5 18.8264C20.5 17.9124 21.2383 17.1389 22.1875 17.1389H27.8125C28.7266 17.1389 29.5 17.9124 29.5 18.8264V35.1389H26.6875V32.3264C26.6875 31.4124 25.9141 30.6389 25 30.6389C24.0508 30.6389 23.3125 31.4124 23.3125 32.3264V35.1389H20.5V18.8264ZM24.7188 19.3889C24.4023 19.3889 24.1562 19.6702 24.1562 19.9514V20.7952H23.3125C22.9961 20.7952 22.75 21.0764 22.75 21.3577V21.9202C22.75 22.2366 22.9961 22.4827 23.3125 22.4827H24.1562V23.3264C24.1562 23.6428 24.4023 23.8889 24.7188 23.8889H25.2812C25.5625 23.8889 25.8438 23.6428 25.8438 23.3264V22.4827H26.6875C26.9688 22.4827 27.25 22.2366 27.25 21.9202V21.3577C27.25 21.0764 26.9688 20.7952 26.6875 20.7952H25.8438V19.9514C25.8438 19.6702 25.5625 19.3889 25.2812 19.3889H24.7188ZM19.375 20.5139V35.1389H15.4375C14.4883 35.1389 13.75 34.4006 13.75 33.4514V28.3889H16.5625C16.8438 28.3889 17.125 28.1428 17.125 27.8264C17.125 27.5452 16.8438 27.2639 16.5625 27.2639H13.75V25.0139H16.5625C16.8438 25.0139 17.125 24.7678 17.125 24.4514C17.125 24.1702 16.8438 23.8889 16.5625 23.8889H13.75V22.2014C13.75 21.2874 14.4883 20.5139 15.4375 20.5139H19.375ZM34.5625 20.5139C35.4766 20.5139 36.25 21.2874 36.25 22.2014V23.8889H33.4375C33.1211 23.8889 32.875 24.1702 32.875 24.4514C32.875 24.7678 33.1211 25.0139 33.4375 25.0139H36.25V27.2639H33.4375C33.1211 27.2639 32.875 27.5452 32.875 27.8264C32.875 28.1428 33.1211 28.3889 33.4375 28.3889H36.25V33.4514C36.25 34.4006 35.4766 35.1389 34.5625 35.1389H30.625V20.5139H34.5625Z" fill="white"/>
</g>
<defs>
<clipPath id="clip0_617_649">
<rect width="50" height="50.1111" fill="white" transform="translate(0 0.888916)"/>
</clipPath>
</defs>
</svg>
