<svg width="18" height="19" viewBox="0 0 18 19" fill="none" xmlns="http://www.w3.org/2000/svg">
<path d="M0 9.875C0 4.91797 4.00781 0.875 9 0.875C13.957 0.875 18 4.91797 18 9.875C18 14.8672 13.957 18.875 9 18.875C4.00781 18.875 0 14.8672 0 9.875ZM13.043 8.32812C13.4297 7.94141 13.4297 7.34375 13.043 6.95703C12.6562 6.57031 12.0586 6.57031 11.6719 6.95703L7.875 10.7539L6.29297 9.20703C5.90625 8.82031 5.30859 8.82031 4.92188 9.20703C4.53516 9.59375 4.53516 10.1914 4.92188 10.5781L7.17188 12.8281C7.55859 13.2148 8.15625 13.2148 8.54297 12.8281L13.043 8.32812Z" fill="#ED821E"/>
</svg>
