<svg width="29" height="26" viewBox="0 0 29 26" fill="none" xmlns="http://www.w3.org/2000/svg">
<path d="M28.0762 12.625C28.0762 13.5039 27.3438 14.1875 26.5137 14.1875H24.9512L25 22C25 23.7578 23.584 25.125 21.875 25.125H6.25C4.49219 25.125 3.125 23.7578 3.125 22V14.1875H1.5625C0.683594 14.1875 0 13.5039 0 12.625C0 12.1855 0.146484 11.7949 0.488281 11.4531L12.9883 0.564453C13.3301 0.222656 13.7207 0.125 14.0625 0.125C14.4043 0.125 14.7949 0.271484 15.0879 0.515625L27.5391 11.4531C27.9297 11.7949 28.125 12.1855 28.0762 12.625ZM16.0156 11.4531V8.71875C16.0156 8.32812 15.625 7.9375 15.2344 7.9375H12.8906C12.4512 7.9375 12.1094 8.32812 12.1094 8.71875V11.4531H9.375C8.93555 11.4531 8.59375 11.8438 8.59375 12.2344V14.5781C8.59375 15.0176 8.93555 15.3594 9.375 15.3594H12.1094V18.0938C12.1094 18.5332 12.4512 18.875 12.8906 18.875H15.2344C15.625 18.875 16.0156 18.5332 16.0156 18.0938V15.3594H18.75C19.1406 15.3594 19.5312 15.0176 19.5312 14.5781V12.2344C19.5312 11.8438 19.1406 11.4531 18.75 11.4531H16.0156Z" fill="#F1821A"/>
</svg>
